<?xml version="1.0" encoding="utf-8"?>
<svg viewBox="0 0 120.46 120.31" xmlns="http://www.w3.org/2000/svg" xmlns:xlink="http://www.w3.org/1999/xlink">
<defs>
<style>
      .cls-1 {
        fill: #010101;
      }

      .cls-2 {
        fill: url(#radial-gradient-15);
      }

      .cls-2, .cls-3, .cls-4, .cls-5, .cls-6, .cls-7, .cls-8, .cls-9, .cls-10, .cls-11, .cls-12, .cls-13, .cls-14, .cls-15 {
        mix-blend-mode: multiply;
      }

      .cls-3 {
        fill: url(#radial-gradient-11);
      }

      .cls-4 {
        fill: url(#radial-gradient-17);
      }

      .cls-5 {
        fill: url(#radial-gradient-16);
      }

      .cls-6 {
        fill: url(#radial-gradient-13);
      }

      .cls-7 {
        fill: url(#radial-gradient-14);
      }

      .cls-16 {
        isolation: isolate;
      }

      .cls-17 {
        fill: url(#radial-gradient-12);
      }

      .cls-17, .cls-18, .cls-19 {
        mix-blend-mode: screen;
      }

      .cls-18 {
        fill: url(#radial-gradient-10);
      }

      .cls-20 {
        clip-path: url(#clippath-11);
      }

      .cls-21 {
        clip-path: url(#clippath-10);
      }

      .cls-22 {
        clip-path: url(#clippath-13);
      }

      .cls-23 {
        clip-path: url(#clippath-12);
      }

      .cls-19 {
        fill: url(#radial-gradient);
      }

      .cls-24 {
        clip-path: url(#clippath-1);
      }

      .cls-25 {
        clip-path: url(#clippath-3);
      }

      .cls-26 {
        clip-path: url(#clippath-4);
      }

      .cls-27 {
        clip-path: url(#clippath-2);
      }

      .cls-28 {
        clip-path: url(#clippath-7);
      }

      .cls-29 {
        clip-path: url(#clippath-6);
      }

      .cls-30 {
        clip-path: url(#clippath-9);
      }

      .cls-31 {
        clip-path: url(#clippath-8);
      }

      .cls-32 {
        clip-path: url(#clippath-5);
      }

      .cls-33 {
        fill: #fff;
      }

      .cls-34 {
        fill: #f04b4c;
      }

      .cls-35 {
        fill: #fbac18;
      }

      .cls-8 {
        fill: url(#radial-gradient-8);
      }

      .cls-9 {
        fill: url(#radial-gradient-9);
      }

      .cls-10 {
        fill: url(#radial-gradient-3);
      }

      .cls-11 {
        fill: url(#radial-gradient-2);
      }

      .cls-12 {
        fill: url(#radial-gradient-7);
      }

      .cls-13 {
        fill: url(#radial-gradient-5);
      }

      .cls-14 {
        fill: url(#radial-gradient-6);
      }

      .cls-15 {
        fill: url(#radial-gradient-4);
      }

      .cls-36 {
        clip-path: url(#clippath);
      }
    </style>
<clipPath id="clippath">
<path class="cls-35" d="M62.07,19.7c.28-.01.55-.02.82-.01,3.49.05,6.95,1.73,9.15,4.94,2.71,3.95,1.93,6.77,1.11,10-.58,2.29-1.18,4.79-.57,8.03,1.47,7.82-9.43,9.96-10.09,16.39-.93-1.13-1.92-2.24-2.96-3.33.52-2.55,1.67-6.66,6.89-17.02.13-.27.27-.54.41-.82,6.26-12.31-3.88-18.99-10.96-15.85,1.63-1.28,3.52-2.04,5.45-2.27.25-.04.51-.07.75-.08Z" fill="#DC0F38" stroke="#000000" stroke-width="1"/>
</clipPath>
<radialGradient cx="44" cy="89.76" fx="44" fy="89.76" gradientTransform="translate(777.02 63.04) rotate(109.73) scale(4.77 7.5)" gradientUnits="userSpaceOnUse" id="radial-gradient" r="4.5">
<stop offset=".14" stop-color="#fff"/>
<stop offset=".21" stop-color="#f2f2f2"/>
<stop offset=".26" stop-color="#dcdbdb"/>
<stop offset=".33" stop-color="#adacac"/>
<stop offset=".43" stop-color="#707070"/>
<stop offset=".52" stop-color="#404040"/>
<stop offset=".6" stop-color="#1d1d1d"/>
<stop offset=".67" stop-color="#080808"/>
<stop offset=".71" stop-color="#010101"/>
</radialGradient>
<clipPath id="clippath-1">
<path class="cls-34" d="M108.79,59.63c.81,6.06,4.44,9.42,2.82,19.92-1.62,10.5-16.26,14.46-23.95,5.25-.6-1.42-1.28-2.78-2.03-4.08,2.34-3.58,3.94-8.04,4.44-13.57.84-9.13-2.18-15.34-5.89-19.95,7.71-2.83,12.72-6.33,14.13-11.53,11.2-.27,9.67,17.9,10.48,23.96Z" fill="#DC0F38" stroke="#000000" stroke-width="1"/>
</clipPath>
<radialGradient cx="103.52" cy="-94.58" fx="103.52" fy="-94.58" gradientTransform="translate(-67.59 288.54) rotate(-9.72) scale(1.8 2.17)" gradientUnits="userSpaceOnUse" id="radial-gradient-2" r="17.48">
<stop offset=".28" stop-color="#520e2b"/>
<stop offset=".39" stop-color="#801540"/>
<stop offset=".64" stop-color="#d1a4ba"/>
<stop offset=".77" stop-color="#eddae2"/>
<stop offset=".86" stop-color="#fff"/>
</radialGradient>
<clipPath id="clippath-2">
<path class="cls-34" d="M64.22,61.3c.56.79,1.08,1.59,1.55,2.4-10.85-4.17-23.47-3.68-34.34,1.84-.27-8.05,3.08-13.82,5.24-18.34.28-.59.54-1.15.77-1.7.69-1.63,1.11-3.1.97-4.46,1.93,2.62,4.21,4.25,5.37,8.9,2.28,9.11,12.87,3.48,20.42,11.34t.02.02Z" fill="#DC0F38" stroke="#000000" stroke-width="1"/>
</clipPath>
<radialGradient cx="100.58" cy="2.1" fx="100.58" fy="2.1" gradientTransform="translate(431.07 335.11) rotate(-143.98) scale(4.72 2.07)" id="radial-gradient-3" r="6.79" xlink:href="#radial-gradient-2"/>
<clipPath id="clippath-3">
<path class="cls-34" d="M86.44,22.21c6.19,8.3,4.51,20.74-3.53,23.5-4.37-4.89-9.2-7.92-9.76-11.07.82-3.23,1.6-6.05-1.11-10-2.21-3.21-5.67-4.89-9.15-4.94h0c4.95-6.75,13.61-6.08,19.84-1.26,1.38,1.07,2.64,2.34,3.72,3.78Z" fill="#DC0F38" stroke="#000000" stroke-width="1"/>
</clipPath>
<radialGradient cx="100.72" cy="-101.11" fx="100.72" fy="-101.11" id="radial-gradient-4" r="13.53" xlink:href="#radial-gradient-2"/>
<clipPath id="clippath-4">
<path class="cls-34" d="M84.18,47.2c3.71,4.61,6.73,10.81,5.89,19.95-.5,5.52-2.1,9.99-4.44,13.57-4.64-8.17-11.75-13.9-19.87-17.02-.47-.81-.99-1.62-1.55-2.4t-.02-.02c-.53-.75-1.1-1.49-1.7-2.22.66-6.43,11.57-8.57,10.09-16.39-.61-3.24-.01-5.74.57-8.03.56,3.16,5.38,6.18,9.76,11.07.43.47.85.98,1.27,1.5Z" fill="#DC0F38" stroke="#000000" stroke-width="1"/>
</clipPath>
<radialGradient cx="63.25" cy="-77.36" fx="63.25" fy="-77.36" gradientTransform="translate(-138.89 254.45) rotate(21.63) scale(1.8 3.44)" id="radial-gradient-5" r="11.47" xlink:href="#radial-gradient-2"/>
<radialGradient cx="36.08" cy="-28.45" fx="36.08" fy="-28.45" gradientTransform="translate(9.64 -40.01) rotate(119.32) scale(1.8 3.44)" id="radial-gradient-6" r="6.79" xlink:href="#radial-gradient-2"/>
<clipPath id="clippath-5">
<path class="cls-34" d="M53.25,23.82c.79-.77,1.67-1.37,2.62-1.78,7.09-3.13,17.22,3.54,10.96,15.85-.14.28-.28.55-.41.82,0,0-3.85-4.61-5.22-8.66-.18-.72-.58-1.43-1.23-2.11-3.68-3.86-15.24-1.88-14.77,14.41-1.26-1.25-2.35-2.44-3.18-3.59-4.28-5.87-.97-15.51,7.52-15.51.05,0,.12,0,.17,0,.63.02,1.28.09,1.95.18.52.09,1.04.2,1.59.37Z" fill="#DC0F38" stroke="#000000" stroke-width="1"/>
</clipPath>
<radialGradient cx="96.46" cy="-103.34" fx="96.46" fy="-103.34" id="radial-gradient-7" r="8.07" xlink:href="#radial-gradient-2"/>
<radialGradient cx="82.66" cy="-104.1" fx="82.66" fy="-104.1" id="radial-gradient-8" r="8.07" xlink:href="#radial-gradient-2"/>
<clipPath id="clippath-6">
<path class="cls-34" d="M72.04,75.65c3,4.01,8.5,2.22,12.98,5.98h-.01c-.34.5-.71.97-1.09,1.42-4.21,5.07-10.06,7.99-16.06,9.43-8.01,1.92-20.43.65-28.55-7.68-.55-.55-1.07-1.14-1.56-1.76-1.98-2.43-3.62-5.36-4.76-8.87-.6-1.87-1.02-3.66-1.27-5.34,4.72-.31,9.1-.68,13.46-2.74,6.26-2.96,6.52,3.23,13.26,4.31,6.73,1.08,9.96.4,13.6,5.25Z" fill="#DC0F38" stroke="#000000" stroke-width="1"/>
</clipPath>
<radialGradient cx="55.17" cy="-28.75" fx="55.17" fy="-28.75" gradientTransform="translate(-15.13 -137.16) rotate(119.32) scale(2.55 5.73)" id="radial-gradient-9" r="6.79" xlink:href="#radial-gradient-2"/>
<clipPath id="clippath-7">
<path class="cls-35" d="M62.49,59.06c.6.73,1.18,1.47,1.7,2.22-7.55-7.86-18.14-2.23-20.42-11.34-1.16-4.64-3.45-6.28-5.37-8.9-.83-1.14-1.59-2.47-2.17-4.31-1.76-5.68,3.42-13.8,13.31-13.47-8.49,0-11.79,9.64-7.52,15.51.83,1.14,1.92,2.34,3.18,3.59,1.53,1.53,3.33,3.16,5.23,4.86,2.98,2.65,6.21,5.49,9.1,8.52,1.04,1.09,2.04,2.2,2.96,3.33Z" fill="#DC0F38" stroke="#000000" stroke-width="1"/>
</clipPath>
<radialGradient cx="56.83" cy="81.98" fx="56.83" fy="81.98" gradientTransform="translate(415.12 -560.6) rotate(60.24) scale(6.01 7.5)" id="radial-gradient-10" r="3.97" xlink:href="#radial-gradient"/>
<clipPath id="clippath-8">
<path class="cls-34" d="M39.99,17.93c6.89-4.97,16.95-7.43,21.32,1.84-1.93.24-3.82.99-5.45,2.27-.95.41-1.83,1-2.62,1.78-.55-.16-1.08-.28-1.59-.37-.68-.12-1.34-.18-1.95-.18-.05,0-.12,0-.17,0-9.89-.33-15.07,7.8-13.31,13.47.58,1.84,1.35,3.17,2.17,4.31.14,1.36-.28,2.83-.97,4.46-11.22-8-6.4-19.71.28-25.73.71-.64,1.48-1.26,2.28-1.84Z" fill="#DC0F38" stroke="#000000" stroke-width="1"/>
</clipPath>
<radialGradient cx="32.59" cy="-88.11" fx="32.59" fy="-88.11" gradientTransform="translate(-173.56 103.06) rotate(55.38) scale(2.02 2.47)" id="radial-gradient-11" r="10.41" xlink:href="#radial-gradient-2"/>
<clipPath id="clippath-9">
<path class="cls-35" d="M85.63,80.72c.74,1.3,1.42,2.66,2.03,4.08-.82-1.37-1.7-2.39-2.64-3.18-4.48-3.76-9.97-1.97-12.98-5.98-3.64-4.85-6.87-4.17-13.6-5.25-6.73-1.08-7-7.27-13.26-4.31-4.36,2.06-8.75,2.42-13.46,2.74-2.06.13-4.18.25-6.4.5,1.95-1.45,3.98-2.7,6.1-3.78,10.88-5.53,23.5-6.01,34.34-1.84,8.12,3.11,15.23,8.84,19.87,17.02Z" fill="#DC0F38" stroke="#000000" stroke-width="1"/>
</clipPath>
<radialGradient cx="44.01" cy="90.12" fx="44.01" fy="90.12" gradientTransform="translate(740.47 167.4) rotate(109.73) scale(2.98 7.5)" id="radial-gradient-12" r="4.5" xlink:href="#radial-gradient"/>
<clipPath id="clippath-10">
<path class="cls-33" d="M61.2,30.06c.9,3.49-3.33,6.92-10.03,4.53,0,0-1.57,4.84-.74,12.61h0c-1.91-1.69-3.7-3.32-5.23-4.85-.46-16.29,11.09-18.27,14.77-14.41.65.68,1.04,1.39,1.23,2.11Z" fill="#DC0F38" stroke="#000000" stroke-width="1"/>
</clipPath>
<radialGradient cx="61.1" cy="-17.87" fx="61.1" fy="-17.87" gradientTransform="translate(247.48 -26.63) rotate(-175.95) scale(3.09 4.4)" gradientUnits="userSpaceOnUse" id="radial-gradient-13" r="4.75">
<stop offset="0" stop-color="#e65325"/>
<stop offset=".1" stop-color="#e65624"/>
<stop offset=".18" stop-color="#e85f24"/>
<stop offset=".25" stop-color="#eb7023"/>
<stop offset=".32" stop-color="#f08722"/>
<stop offset=".38" stop-color="#f6a521"/>
<stop offset=".44" stop-color="#fdc91f"/>
<stop offset=".45" stop-color="#ffcf1f"/>
<stop offset=".54" stop-color="#ffdf6c"/>
<stop offset=".63" stop-color="#ffedab"/>
<stop offset=".7" stop-color="#fff6d8"/>
<stop offset=".76" stop-color="#fffcf4"/>
<stop offset=".79" stop-color="#fff"/>
</radialGradient>
<clipPath id="clippath-11">
<path class="cls-34" d="M61.2,30.06c1.38,4.05,5.22,8.66,5.22,8.66-5.22,10.36-6.38,14.46-6.89,17.02-2.89-3.03-6.12-5.87-9.1-8.52h0c-.83-7.79.74-12.62.74-12.62,6.7,2.39,10.93-1.04,10.03-4.53Z" fill="#DC0F38" stroke="#000000" stroke-width="1"/>
</clipPath>
<radialGradient cx="77.5" cy="-20.44" fx="77.5" fy="-20.44" gradientTransform="translate(289.67 -69.62) rotate(-177.46) scale(3.08 6.04)" id="radial-gradient-14" r="6.79" xlink:href="#radial-gradient-2"/>
<clipPath id="clippath-12">
<path class="cls-34" d="M31.42,65.54c-2.11,1.08-4.15,2.33-6.1,3.78,2.22-.25,4.34-.37,6.4-.5.25,1.68.67,3.47,1.27,5.34,1.14,3.51,2.78,6.44,4.76,8.87-3.2,3.09-5.45,6.95-6.54,10.81-12.22,1.85-19.35-12.82-18.94-19.96.48-8.7,3.13-7.45.67-16.22-3.36-11.98,6.19-23.47,15.02-18.31,2.07,2.45,4.91,5.06,8.7,7.83-2.16,4.52-5.51,10.3-5.24,18.34Z" fill="#DC0F38" stroke="#000000" stroke-width="1"/>
</clipPath>
<radialGradient cx="77.4" cy="-89.88" fx="77.4" fy="-89.88" gradientTransform="translate(-47.61 285.09) rotate(-9.72) scale(1.53 2.17)" id="radial-gradient-15" r="17.48" xlink:href="#radial-gradient-2"/>
<radialGradient cx="82.62" cy="-94.91" fx="82.62" fy="-94.91" gradientTransform="translate(-47.61 285.09) rotate(-9.72) scale(1.53 2.17)" id="radial-gradient-16" r="17.48" xlink:href="#radial-gradient-2"/>
<clipPath id="clippath-13">
<path class="cls-34" d="M83.92,83.04c2.15,5.35,6.48,8.55,11.27,9.61h0s1.72,4.23-6.08,9.89c-7.81,5.65-15.64,3.67-20.31,3.8-4.67.14-15.89,5.38-27.18,1.75-11.29-3.63-9.36-17.12-2.29-23.29,8.12,8.32,20.54,9.6,28.55,7.68,6-1.44,11.85-4.36,16.06-9.43Z" fill="#DC0F38" stroke="#000000" stroke-width="1"/>
</clipPath>
<radialGradient cx="49.17" cy="-47.25" fx="49.17" fy="-47.25" gradientTransform="translate(-69.02 32.04) rotate(81.45) scale(1.53 2.58)" id="radial-gradient-17" r="14.36" xlink:href="#radial-gradient-2"/>
</defs>
<g class="cls-16">
<g data-name="Layer 1" id="Layer_1">
<g>
<g>
<g>
<g>
<path class="cls-35" d="M62.07,19.7c.28-.01.55-.02.82-.01,3.49.05,6.95,1.73,9.15,4.94,2.71,3.95,1.93,6.77,1.11,10-.58,2.29-1.18,4.79-.57,8.03,1.47,7.82-9.43,9.96-10.09,16.39-.93-1.13-1.92-2.24-2.96-3.33.52-2.55,1.67-6.66,6.89-17.02.13-.27.27-.54.41-.82,6.26-12.31-3.88-18.99-10.96-15.85,1.63-1.28,3.52-2.04,5.45-2.27.25-.04.51-.07.75-.08Z" fill="#DC0F38" stroke="#000000" stroke-width="1"/>
<g class="cls-36">
<path class="cls-19" d="M64.93,53.71c-17.56-6.29-28.55-20.47-24.55-31.64,4.02-11.18,21.5-15.13,39.07-8.83,17.56,6.3,28.55,20.46,24.53,31.63-4,11.17-21.49,15.14-39.04,8.83Z" fill="#DC0F38" stroke="#000000" stroke-width="1"/>
</g>
</g>
<g>
<path class="cls-34" d="M108.79,59.63c.81,6.06,4.44,9.42,2.82,19.92-1.62,10.5-16.26,14.46-23.95,5.25-.6-1.42-1.28-2.78-2.03-4.08,2.34-3.58,3.94-8.04,4.44-13.57.84-9.13-2.18-15.34-5.89-19.95,7.71-2.83,12.72-6.33,14.13-11.53,11.2-.27,9.67,17.9,10.48,23.96Z" fill="#DC0F38" stroke="#000000" stroke-width="1"/>
<g class="cls-24">
<path class="cls-11" d="M112.42,49.71c3.53,20.62-7.48,39.72-24.6,42.65-17.12,2.93-33.87-11.41-37.4-32.03-3.53-20.62,7.49-39.72,24.61-42.65,17.12-2.93,33.86,11.41,37.4,32.03Z" fill="#DC0F38" stroke="#000000" stroke-width="1"/>
</g>
</g>
<path class="cls-33" d="M45.19,10.77c-2.6,3.59-5.1,5.27-7.63,6.32-2.53,1.06-5.08,1.49-7.8,2.58-4.85,1.98-9.22,7.73-4.44,15.99.68,1.19,1.55,2.42,2.64,3.71,2.07,2.45,4.91,5.06,8.7,7.83.28-.59.54-1.15.77-1.7-11.22-8-6.4-19.71.28-25.73.71-.64,1.48-1.26,2.28-1.84,6.89-4.97,16.95-7.43,21.32,1.84.25-.04.51-.07.75-.08.05-1.78.34-3.39.82-4.83h0c-2.16-9.89-12.52-11.28-17.7-4.09Z" fill="#DC0F38" stroke="#000000" stroke-width="1"/>
<g>
<path class="cls-34" d="M64.22,61.3c.56.79,1.08,1.59,1.55,2.4-10.85-4.17-23.47-3.68-34.34,1.84-.27-8.05,3.08-13.82,5.24-18.34.28-.59.54-1.15.77-1.7.69-1.63,1.11-3.1.97-4.46,1.93,2.62,4.21,4.25,5.37,8.9,2.28,9.11,12.87,3.48,20.42,11.34t.02.02Z" fill="#DC0F38" stroke="#000000" stroke-width="1"/>
<g class="cls-27">
<path class="cls-10" d="M24.14,33.83c4.57-6.29,19.88-2.96,34.18,7.45,14.3,10.4,22.2,23.93,17.63,30.23-4.58,6.29-19.88,2.95-34.19-7.45-14.31-10.4-22.2-23.93-17.62-30.22Z" fill="#DC0F38" stroke="#000000" stroke-width="1"/>
</g>
</g>
<path class="cls-33" d="M38.67,50.05c.26-.53.51-1.04.75-1.53.71-1.47,1.19-3.04,1.52-4.37-.83-1.06-1.72-2-2.54-3.11.14,1.36-.28,2.83-.97,4.46-.23.55-.48,1.11-.77,1.7-2.16,4.52-5.51,10.3-5.24,18.34.96-.49,1.94-.92,2.92-1.33.35-7.94,2.9-11.26,4.33-14.16Z" fill="#DC0F38" stroke="#000000" stroke-width="1"/>
<g>
<path class="cls-34" d="M86.44,22.21c6.19,8.3,4.51,20.74-3.53,23.5-4.37-4.89-9.2-7.92-9.76-11.07.82-3.23,1.6-6.05-1.11-10-2.21-3.21-5.67-4.89-9.15-4.94h0c4.95-6.75,13.61-6.08,19.84-1.26,1.38,1.07,2.64,2.34,3.72,3.78Z" fill="#DC0F38" stroke="#000000" stroke-width="1"/>
<g class="cls-25">
<path class="cls-15" d="M98.05,37.83c2.74,15.96-5.79,30.74-19.04,33.01-13.25,2.27-26.21-8.83-28.95-24.79-2.73-15.96,5.79-30.74,19.04-33.01,13.25-2.27,26.21,8.83,28.94,24.79Z" fill="#DC0F38" stroke="#000000" stroke-width="1"/>
</g>
</g>
<g>
<path class="cls-34" d="M84.18,47.2c3.71,4.61,6.73,10.81,5.89,19.95-.5,5.52-2.1,9.99-4.44,13.57-4.64-8.17-11.75-13.9-19.87-17.02-.47-.81-.99-1.62-1.55-2.4t-.02-.02c-.53-.75-1.1-1.49-1.7-2.22.66-6.43,11.57-8.57,10.09-16.39-.61-3.24-.01-5.74.57-8.03.56,3.16,5.38,6.18,9.76,11.07.43.47.85.98,1.27,1.5Z" fill="#DC0F38" stroke="#000000" stroke-width="1"/>
<g class="cls-26">
<path class="cls-13" d="M84.09,56.88c-8.02,20.24-23.12,33.24-33.72,29.04-10.6-4.21-12.69-24.02-4.66-44.25,8.02-20.24,23.12-33.24,33.72-29.04,10.6,4.2,12.69,24.02,4.66,44.25Z" fill="#DC0F38" stroke="#000000" stroke-width="1"/>
<path class="cls-14" d="M57.1,75.13c-11.24-6.31-17.67-16.2-14.37-22.09,3.31-5.88,15.1-5.54,26.34.77,11.24,6.31,17.67,16.2,14.36,22.09-3.3,5.89-15.1,5.54-26.33-.77Z" fill="#DC0F38" stroke="#000000" stroke-width="1"/>
</g>
</g>
<path class="cls-33" d="M84.18,47.2c-.42-.52-.84-1.02-1.27-1.5-4.37-4.89-9.2-7.92-9.76-11.07-.37,1.47-.75,3.01-.81,4.79,2.14,2.97,5.22,5.05,8.3,8.32.42.45.79.92,1.18,1.39,4.19,5.2,5.85,10.84,5.22,17.74-.25,2.83-.83,5.43-1.73,7.79-.48,1.11-1.04,2.07-1.67,2.91.71,1.01,1.38,2.06,2,3.15,2.34-3.58,3.94-8.04,4.44-13.57.84-9.13-2.18-15.34-5.89-19.95Z" fill="#DC0F38" stroke="#000000" stroke-width="1"/>
<g>
<path class="cls-34" d="M53.25,23.82c.79-.77,1.67-1.37,2.62-1.78,7.09-3.13,17.22,3.54,10.96,15.85-.14.28-.28.55-.41.82,0,0-3.85-4.61-5.22-8.66-.18-.72-.58-1.43-1.23-2.11-3.68-3.86-15.24-1.88-14.77,14.41-1.26-1.25-2.35-2.44-3.18-3.59-4.28-5.87-.97-15.51,7.52-15.51.05,0,.12,0,.17,0,.63.02,1.28.09,1.95.18.52.09,1.04.2,1.59.37Z" fill="#DC0F38" stroke="#000000" stroke-width="1"/>
<g class="cls-32">
<path class="cls-12" d="M80,36.01c1.63,9.52-3.45,18.33-11.36,19.69-7.91,1.35-15.63-5.27-17.27-14.79-1.63-9.52,3.46-18.34,11.36-19.69,7.9-1.35,15.63,5.27,17.26,14.79Z" fill="#DC0F38" stroke="#000000" stroke-width="1"/>
<path class="cls-8" d="M55.25,38.59c1.63,9.52-3.45,18.33-11.36,19.69-7.91,1.35-15.64-5.27-17.27-14.79-1.63-9.52,3.46-18.34,11.36-19.69,7.9-1.36,15.63,5.27,17.26,14.79Z" fill="#DC0F38" stroke="#000000" stroke-width="1"/>
</g>
</g>
<path class="cls-33" d="M98.44,29.6c-1.62-8.75-9.16-9.14-13.43-11.44-.13-.08-.26-.15-.39-.23-3.83-2.41-3.48-7.8-9.05-10.4-4.71-2.2-10.55.81-12.69,7.31h0c-.47,1.45-.77,3.07-.82,4.85.28-.01.55-.02.82-.01h0c4.95-6.75,13.61-6.08,19.84-1.26,1.38,1.07,2.64,2.34,3.72,3.78,6.19,8.3,4.51,20.74-3.53,23.5.43.47.85.98,1.27,1.5,7.71-2.83,12.72-6.33,14.13-11.53.3-1.1.44-2.28.4-3.54-.02-.8-.11-1.65-.27-2.52Z" fill="#DC0F38" stroke="#000000" stroke-width="1"/>
<g>
<path class="cls-34" d="M72.04,75.65c3,4.01,8.5,2.22,12.98,5.98h-.01c-.34.5-.71.97-1.09,1.42-4.21,5.07-10.06,7.99-16.06,9.43-8.01,1.92-20.43.65-28.55-7.68-.55-.55-1.07-1.14-1.56-1.76-1.98-2.43-3.62-5.36-4.76-8.87-.6-1.87-1.02-3.66-1.27-5.34,4.72-.31,9.1-.68,13.46-2.74,6.26-2.96,6.52,3.23,13.26,4.31,6.73,1.08,9.96.4,13.6,5.25Z" fill="#DC0F38" stroke="#000000" stroke-width="1"/>
<g class="cls-29">
<path class="cls-9" d="M51.27,81.15c-18.75-10.53-30.16-25.82-25.48-34.15,4.68-8.33,23.67-6.55,42.42,3.98,18.75,10.53,30.16,25.82,25.48,34.15-4.68,8.33-23.67,6.55-42.42-3.98Z" fill="#DC0F38" stroke="#000000" stroke-width="1"/>
</g>
</g>
<path class="cls-33" d="M80.32,82.48c-3.3,3.33-7.81,5.74-13.17,7.03-1.9.46-4.07.7-6.27.7-7.65,0-14.71-2.75-19.38-7.54-.45-.45-.89-.95-1.37-1.54-1.84-2.26-3.26-4.92-4.23-7.9-.18-.55-.34-1.09-.48-1.62-.24-1.1-.41-2.11-.51-3.02-1.05.1-2.11.17-3.19.25.25,1.68.67,3.47,1.27,5.34,1.14,3.51,2.78,6.44,4.76,8.87.5.61,1.01,1.21,1.56,1.76,8.12,8.32,20.54,9.6,28.55,7.68,6-1.44,11.85-4.36,16.06-9.43.38-.45.74-.93,1.09-1.41h.01c-.83-.7-1.69-1.21-2.56-1.6-.74.99-1.48,1.87-2.14,2.44Z" fill="#DC0F38" stroke="#000000" stroke-width="1"/>
<g>
<path class="cls-35" d="M62.49,59.06c.6.73,1.18,1.47,1.7,2.22-7.55-7.86-18.14-2.23-20.42-11.34-1.16-4.64-3.45-6.28-5.37-8.9-.83-1.14-1.59-2.47-2.17-4.31-1.76-5.68,3.42-13.8,13.31-13.47-8.49,0-11.79,9.64-7.52,15.51.83,1.14,1.92,2.34,3.18,3.59,1.53,1.53,3.33,3.16,5.23,4.86,2.98,2.65,6.21,5.49,9.1,8.52,1.04,1.09,2.04,2.2,2.96,3.33Z" fill="#DC0F38" stroke="#000000" stroke-width="1"/>
<g class="cls-28">
<path class="cls-18" d="M62.52,61.71c-14.26,8.15-31.12,5.5-37.65-5.91-6.52-11.43-.25-27.29,14.01-35.45,14.26-8.15,31.11-5.51,37.64,5.92,6.53,11.41.27,27.29-13.99,35.44Z" fill="#DC0F38" stroke="#000000" stroke-width="1"/>
</g>
</g>
<g>
<path class="cls-34" d="M39.99,17.93c6.89-4.97,16.95-7.43,21.32,1.84-1.93.24-3.82.99-5.45,2.27-.95.41-1.83,1-2.62,1.78-.55-.16-1.08-.28-1.59-.37-.68-.12-1.34-.18-1.95-.18-.05,0-.12,0-.17,0-9.89-.33-15.07,7.8-13.31,13.47.58,1.84,1.35,3.17,2.17,4.31.14,1.36-.28,2.83-.97,4.46-11.22-8-6.4-19.71.28-25.73.71-.64,1.48-1.26,2.28-1.84Z" fill="#DC0F38" stroke="#000000" stroke-width="1"/>
<g class="cls-31">
<path class="cls-3" d="M55.32,50.82c-11.71,8.08-26.56,6.87-33.17-2.7-6.61-9.58-2.48-23.89,9.22-31.97,11.71-8.08,26.56-6.87,33.17,2.71,6.61,9.58,2.48,23.89-9.23,31.97Z" fill="#DC0F38" stroke="#000000" stroke-width="1"/>
</g>
</g>
<g>
<path class="cls-35" d="M85.63,80.72c.74,1.3,1.42,2.66,2.03,4.08-.82-1.37-1.7-2.39-2.64-3.18-4.48-3.76-9.97-1.97-12.98-5.98-3.64-4.85-6.87-4.17-13.6-5.25-6.73-1.08-7-7.27-13.26-4.31-4.36,2.06-8.75,2.42-13.46,2.74-2.06.13-4.18.25-6.4.5,1.95-1.45,3.98-2.7,6.1-3.78,10.88-5.53,23.5-6.01,34.34-1.84,8.12,3.11,15.23,8.84,19.87,17.02Z" fill="#DC0F38" stroke="#000000" stroke-width="1"/>
<g class="cls-30">
<path class="cls-17" d="M55.21,75.47c-17.56-6.3-29.77-17.07-27.27-24.05,2.51-6.98,18.78-7.54,36.34-1.24,17.56,6.3,29.77,17.06,27.25,24.05-2.5,6.98-18.76,7.55-36.32,1.25Z" fill="#DC0F38" stroke="#000000" stroke-width="1"/>
</g>
</g>
<path class="cls-33" d="M111.07,87.77c-3.34,3.63-8.02,5.39-12.63,5.28-1.1-.02-2.18-.15-3.25-.4-4.78-1.06-9.11-4.25-11.27-9.61.38-.45.74-.93,1.09-1.41h.01c.94.78,1.82,1.8,2.64,3.17,7.69,9.22,22.34,5.26,23.95-5.25,1.62-10.5-2.01-13.86-2.82-19.92-.81-6.06.72-24.23-10.48-23.96.3-1.1.44-2.28.4-3.54,11.19-1.82,11.48,15.83,18.29,20.51,3.94,2.7,2.29,4.58,0,9.69-2.28,5.12,1.75,17.09-5.92,25.45Z" fill="#DC0F38" stroke="#000000" stroke-width="1"/>
<g>
<path class="cls-33" d="M61.2,30.06c.9,3.49-3.33,6.92-10.03,4.53,0,0-1.57,4.84-.74,12.61h0c-1.91-1.69-3.7-3.32-5.23-4.85-.46-16.29,11.09-18.27,14.77-14.41.65.68,1.04,1.39,1.23,2.11Z" fill="#DC0F38" stroke="#000000" stroke-width="1"/>
<g class="cls-21">
<path class="cls-6" d="M39.18,37.43c.82-11.5,8.03-20.37,16.1-19.79,8.07.58,13.95,10.36,13.13,21.87-.81,11.5-8.01,20.36-16.09,19.78-8.07-.57-13.96-10.35-13.14-21.86Z" fill="#DC0F38" stroke="#000000" stroke-width="1"/>
</g>
</g>
<g>
<path class="cls-34" d="M61.2,30.06c1.38,4.05,5.22,8.66,5.22,8.66-5.22,10.36-6.38,14.46-6.89,17.02-2.89-3.03-6.12-5.87-9.1-8.52h0c-.83-7.79.74-12.62.74-12.62,6.7,2.39,10.93-1.04,10.03-4.53Z" fill="#DC0F38" stroke="#000000" stroke-width="1"/>
<g class="cls-20">
<path class="cls-7" d="M25.15,42.23C26.15,19.59,36.31,1.65,47.84,2.17c11.53.51,20.06,19.28,19.06,41.91-1,22.63-11.16,40.58-22.69,40.06-11.53-.51-20.06-19.28-19.06-41.91Z" fill="#DC0F38" stroke="#000000" stroke-width="1"/>
</g>
</g>
<path class="cls-33" d="M59.73,34.06c1.35,2.21,3.42,5.5,5.19,7.69.46-.95.95-1.95,1.5-3.04,0,0-3.85-4.61-5.22-8.66.39,1.5-.18,2.98-1.46,4Z" fill="#DC0F38" stroke="#000000" stroke-width="1"/>
<path class="cls-33" d="M12.27,73.9c-.41,7.14,6.72,21.81,18.94,19.96-.24.83-.42,1.66-.54,2.48-11.06,2.78-19.1-7.68-21.24-16.38-2.29-9.28-6.32-14.8-7.27-17.49-.95-2.69,1.88-4.18,5.65-11.05,3.77-6.86,5.78-19.11,17.5-15.75.68,1.19,1.55,2.42,2.64,3.71-8.83-5.16-18.38,6.33-15.02,18.31,2.47,8.77-.18,7.52-.67,16.22Z" fill="#DC0F38" stroke="#000000" stroke-width="1"/>
<g>
<path class="cls-34" d="M31.42,65.54c-2.11,1.08-4.15,2.33-6.1,3.78,2.22-.25,4.34-.37,6.4-.5.25,1.68.67,3.47,1.27,5.34,1.14,3.51,2.78,6.44,4.76,8.87-3.2,3.09-5.45,6.95-6.54,10.81-12.22,1.85-19.35-12.82-18.94-19.96.48-8.7,3.13-7.45.67-16.22-3.36-11.98,6.19-23.47,15.02-18.31,2.07,2.45,4.91,5.06,8.7,7.83-2.16,4.52-5.51,10.3-5.24,18.34Z" fill="#DC0F38" stroke="#000000" stroke-width="1"/>
<g class="cls-23">
<path class="cls-2" d="M62.91,68.5c3.53,20.62-5.43,39.37-20.02,41.87-14.59,2.5-29.28-12.2-32.82-32.82-3.53-20.62,5.43-39.37,20.02-41.86,14.59-2.5,29.28,12.19,32.81,32.82Z" fill="#DC0F38" stroke="#000000" stroke-width="1"/>
<path class="cls-5" d="M68.96,56.41c3.53,20.62-5.43,39.37-20.02,41.87-14.59,2.5-29.28-12.19-32.82-32.82-3.53-20.62,5.43-39.37,20.02-41.87,14.59-2.5,29.28,12.2,32.81,32.82Z" fill="#DC0F38" stroke="#000000" stroke-width="1"/>
</g>
</g>
<g>
<path class="cls-34" d="M83.92,83.04c2.15,5.35,6.48,8.55,11.27,9.61h0s1.72,4.23-6.08,9.89c-7.81,5.65-15.64,3.67-20.31,3.8-4.67.14-15.89,5.38-27.18,1.75-11.29-3.63-9.36-17.12-2.29-23.29,8.12,8.32,20.54,9.6,28.55,7.68,6-1.44,11.85-4.36,16.06-9.43Z" fill="#DC0F38" stroke="#000000" stroke-width="1"/>
<g class="cls-22">
<path class="cls-4" d="M66.17,110.24c-20.26,3.05-38.16-4.23-39.97-16.26-1.81-12.03,13.15-24.25,33.42-27.3,20.26-3.05,38.16,4.23,39.97,16.26,1.81,12.03-13.15,24.25-33.41,27.3Z" fill="#DC0F38" stroke="#000000" stroke-width="1"/>
</g>
</g>
<path class="cls-33" d="M98.44,93.06c.3,12.69-20.39,18.35-23.84,22.3-2.2,2.51-2.55,6.19-7.4,1.88-4.85-4.31-18.99-2.69-29.44-6.86-5.9-2.36-7.99-8.01-7.08-14.05.12-.82.3-1.65.54-2.48,1.09-3.87,3.34-7.72,6.54-10.81.5.61,1.01,1.21,1.56,1.76-7.06,6.17-8.99,19.67,2.29,23.29,11.3,3.63,22.51-1.62,27.18-1.75,4.67-.13,12.5,1.85,20.31-3.8,7.81-5.65,6.08-9.88,6.08-9.88h0c1.07.24,2.15.37,3.25.39h0Z" fill="#DC0F38" stroke="#000000" stroke-width="1"/>
</g>
<g>
<path class="cls-1" d="M50.42,48.28c-.54,0-1.01-.41-1.07-.96-.84-7.92.73-12.85.79-13.05.09-.28.29-.51.55-.63.26-.13.56-.15.84-.05,4.22,1.5,7.2.5,8.28-1.16.74-1.14.51-2.54-.62-3.72-1.18-1.23-3.77-1.89-6.44-.78-2.04.85-6.77,3.96-6.47,14.41.02.59-.45,1.09-1.05,1.11-.61,0-1.09-.45-1.11-1.05-.33-11.78,5.34-15.44,7.8-16.46,3.21-1.34,6.84-.81,8.83,1.28,1.84,1.93,2.17,4.37.87,6.38-1.43,2.2-4.92,3.69-9.68,2.38-.39,1.78-1.01,5.73-.44,11.13.06.59-.37,1.12-.96,1.18-.04,0-.08,0-.11,0Z" fill="#DC0F38" stroke="#000000" stroke-width="1"/>
<path class="cls-1" d="M65.77,64.78c-.37,0-.73-.19-.93-.54-1.43-2.46-3.35-4.85-5.49-7.14-.02,0-.05,0-.07-.01-.49-.09-.85-.51-.88-.99-2.58-2.66-5.42-5.19-8.08-7.56-3.68-3.28-7.15-6.37-9.18-9.15-2.74-3.76-2.77-9.08-.07-12.94,2.56-3.65,6.97-5.06,11.88-3.83,3.53-3.05,8.92-3.26,12.79-.42,3.62,2.65,6.05,8.29,2.04,16.18-4.94,9.72-6.45,14.17-7.08,17.02,2.32,2.46,4.42,5.05,5.99,7.76.3.51.12,1.17-.39,1.47-.17.1-.36.15-.54.15ZM49.55,24.34c-2.81,0-5.16,1.15-6.71,3.36-2.18,3.11-2.16,7.4.05,10.43,1.89,2.6,5.28,5.62,8.87,8.82,2.35,2.09,4.83,4.31,7.18,6.64.83-3.06,2.58-7.61,6.93-16.18,2.89-5.67,2.36-10.71-1.4-13.46-3.21-2.35-7.71-2.08-10.47.64-.28.27-.68.37-1.05.27-1.19-.34-2.33-.51-3.41-.51Z" fill="#DC0F38" stroke="#000000" stroke-width="1"/>
<path class="cls-1" d="M62.49,60.13s-.07,0-.11,0c-.59-.06-1.02-.59-.96-1.18.34-3.29,2.88-5.49,5.34-7.62,2.81-2.43,5.46-4.73,4.75-8.45-.67-3.55.02-6.27.63-8.66.78-3.07,1.4-5.49-1-8.97-1.65-2.39-4.11-3.94-6.94-4.37-2.73-.41-5.53.33-7.67,2.02-.47.37-1.14.29-1.51-.18-.37-.47-.29-1.14.18-1.51,2.61-2.06,6.01-2.96,9.33-2.46,3.42.51,6.41,2.39,8.4,5.28,2.95,4.29,2.12,7.56,1.31,10.73-.58,2.28-1.18,4.64-.6,7.73.94,4.94-2.46,7.89-5.46,10.48-2.24,1.94-4.36,3.78-4.61,6.21-.06.55-.52.97-1.07.97Z" fill="#DC0F38" stroke="#000000" stroke-width="1"/>
<path class="cls-1" d="M64.22,62.38c-.28,0-.57-.11-.78-.33-3.26-3.41-7.08-4.09-10.77-4.75-4.4-.79-8.55-1.53-9.94-7.09-.82-3.26-2.21-4.91-3.69-6.65-1.42-1.67-2.88-3.41-3.84-6.5-1-3.21-.04-7.04,2.49-10,3.25-3.8,8.4-5.5,14.12-4.66.59.09,1,.63.91,1.22-.09.59-.64,1-1.22.91-4.97-.73-9.4.7-12.17,3.93-2.06,2.4-2.85,5.45-2.07,7.96.83,2.67,2.09,4.16,3.43,5.74,1.57,1.86,3.19,3.77,4.13,7.52,1.05,4.21,4.07,4.75,8.23,5.5,3.84.69,8.19,1.47,11.94,5.38.41.43.4,1.11-.03,1.52-.21.2-.48.3-.74.3Z" fill="#DC0F38" stroke="#000000" stroke-width="1"/>
<path class="cls-1" d="M87.66,85.88c-.37,0-.73-.19-.93-.53-2.43-4.1-5.6-4.81-8.66-5.5-2.5-.56-5.08-1.14-6.89-3.56-2.65-3.53-4.87-3.8-9.3-4.34-1.09-.13-2.28-.28-3.61-.49-3.15-.5-5.03-2.04-6.55-3.28-1.29-1.05-2.21-1.81-3.54-1.81-.73,0-1.56.23-2.54.69-4.76,2.25-9.53,2.56-14.58,2.88-1.82.12-3.69.24-5.62.45-.48.05-.94-.22-1.12-.68-.18-.45-.03-.97.36-1.26,7.56-5.63,16.57-8.61,26.04-8.61,16.94,0,31.47,9.4,37.92,24.53.22.52,0,1.13-.5,1.38-.16.08-.32.12-.49.12ZM48.19,64.22c2.09,0,3.52,1.17,4.9,2.29,1.45,1.19,2.95,2.41,5.53,2.82,1.3.21,2.46.35,3.52.48,4.55.55,7.56.92,10.76,5.19,1.34,1.78,3.33,2.23,5.65,2.75,1.56.35,3.3.74,5.02,1.63-7.02-10.86-19.09-17.37-32.84-17.37-7.62,0-14.92,2.02-21.34,5.89.52-.04,1.03-.07,1.54-.1,4.84-.31,9.4-.6,13.8-2.68,1.28-.6,2.41-.9,3.46-.9Z" fill="#DC0F38" stroke="#000000" stroke-width="1"/>
<path class="cls-1" d="M85.63,81.8c-.2,0-.4-.06-.59-.17-.5-.32-.64-.99-.31-1.49,2.37-3.64,3.81-8.04,4.27-13.08,1.22-13.36-6.12-20.19-11.48-25.18-2.8-2.61-5.01-4.67-5.44-7.05-.11-.59.28-1.15.87-1.25.58-.1,1.14.29,1.25.87.3,1.67,2.38,3.61,4.78,5.85,5.37,5,13.47,12.54,12.15,26.95-.49,5.39-2.04,10.12-4.61,14.06-.21.32-.55.49-.9.49Z" fill="#DC0F38" stroke="#000000" stroke-width="1"/>
<path class="cls-1" d="M60.87,94.34c-10.64,0-24.01-4.83-28.89-19.83-.61-1.86-1.05-3.72-1.32-5.52-.09-.59.32-1.14.9-1.23.58-.08,1.14.32,1.23.91.25,1.68.67,3.42,1.24,5.17,5.65,17.34,23.61,20,33.59,17.59,4.99-1.2,11.92-3.99,16.53-10.43.35-.48,1.02-.59,1.5-.25.48.35.6,1.02.25,1.5-3.95,5.53-10.1,9.42-17.77,11.27-2.14.51-4.61.81-7.25.81Z" fill="#DC0F38" stroke="#000000" stroke-width="1"/>
<path class="cls-1" d="M31.42,66.62c-.58,0-1.06-.46-1.08-1.04-.25-7.44,2.45-12.93,4.62-17.33,1.43-2.91,2.56-5.21,2.37-7.1-.06-.59.37-1.12.96-1.18.6-.05,1.12.37,1.18.96.25,2.51-1.06,5.18-2.58,8.27-2.06,4.19-4.63,9.41-4.4,16.31.02.59-.45,1.09-1.04,1.11-.01,0-.02,0-.04,0Z" fill="#DC0F38" stroke="#000000" stroke-width="1"/>
<path class="cls-1" d="M66.42,39.79c-.31,0-.62-.13-.83-.39-.17-.2-4.21-5.08-5.54-9.37-.18-.57.14-1.17.71-1.35.57-.18,1.17.14,1.35.71,1.2,3.88,5.09,8.58,5.13,8.63.38.46.32,1.14-.14,1.52-.2.17-.45.25-.69.25Z" fill="#DC0F38" stroke="#000000" stroke-width="1"/>
<path class="cls-1" d="M84.18,48.28c-.44,0-.85-.27-1.01-.71-.21-.56.08-1.18.64-1.38,10.9-4,14.96-8.9,13.58-16.39-1.14-6.16-5.35-7.72-9.43-9.24-1.24-.46-2.41-.9-3.45-1.45-2.23-1.2-3.28-3.17-4.31-5.07-1.17-2.17-2.27-4.23-5.08-5.54-2.08-.97-4.51-.77-6.66.55-3.2,1.97-5.19,5.96-5.32,10.67-.02.59-.52,1.04-1.11,1.05-.59-.02-1.06-.51-1.04-1.11.15-5.44,2.52-10.09,6.34-12.44,2.78-1.71,5.95-1.96,8.7-.67,3.45,1.62,4.84,4.19,6.06,6.47.95,1.77,1.77,3.3,3.43,4.19.9.49,2.01.9,3.18,1.33,4.21,1.56,9.44,3.51,10.8,10.86,2.04,11.05-6.92,15.85-14.96,18.8-.12.05-.25.07-.37.07Z" fill="#DC0F38" stroke="#000000" stroke-width="1"/>
<path class="cls-1" d="M36.66,48.28c-.22,0-.44-.07-.63-.21-12.36-9.01-14.31-16.15-13.77-20.54.56-4.62,4.04-7.6,7.1-8.85,1.39-.57,2.74-.96,4.04-1.34,3.88-1.13,7.22-2.11,10.91-7.21,2.74-3.8,7.03-5.62,11.19-4.75,4.21.88,7.37,4.34,8.44,9.25.13.58-.24,1.15-.82,1.28-.58.13-1.16-.24-1.28-.82-.88-4.06-3.42-6.9-6.77-7.6-3.31-.69-6.76.8-9,3.91-4.12,5.69-8.15,6.87-12.05,8.01-1.25.37-2.54.74-3.83,1.27-3.23,1.32-5.39,3.98-5.78,7.11-.47,3.82,1.39,10.14,12.9,18.54.48.35.59,1.02.24,1.5-.21.29-.54.44-.87.44Z" fill="#DC0F38" stroke="#000000" stroke-width="1"/>
<path class="cls-1" d="M27.11,97.86c-2.78,0-5.5-.77-8.01-2.28-4.93-2.97-9.14-9-10.7-15.37-1.57-6.38-4.01-10.99-5.62-14.05-.73-1.38-1.31-2.47-1.62-3.36-.76-2.18.35-3.75,2.03-6.12,1.02-1.43,2.28-3.21,3.7-5.79.72-1.32,1.38-2.85,2.08-4.47,2.83-6.57,6.36-14.76,16.66-11.79.57.16.9.76.74,1.33-.16.57-.76.9-1.33.74-8.48-2.44-11.2,3.89-14.08,10.58-.72,1.67-1.4,3.25-2.17,4.66-1.48,2.69-2.84,4.6-3.83,6-1.63,2.3-2.13,3.08-1.75,4.16.26.73.8,1.76,1.49,3.06,1.66,3.15,4.18,7.91,5.81,14.54,1.44,5.84,5.25,11.35,9.72,14.04,3.2,1.93,6.63,2.45,10.21,1.55.58-.15,1.16.21,1.31.78.14.58-.21,1.16-.78,1.31-1.28.32-2.56.48-3.83.48Z" fill="#DC0F38" stroke="#000000" stroke-width="1"/>
<path class="cls-1" d="M70.77,120.31c-1.21,0-2.56-.71-4.29-2.26-2.32-2.06-7.52-2.68-13.03-3.34-5.18-.62-11.05-1.32-16.1-3.33-4.09-1.63-6.81-4.93-7.67-9.28-1.26-6.41,1.68-14.38,7.32-19.83.43-.41,1.11-.4,1.52.03.41.43.4,1.11-.02,1.52-5.13,4.96-7.83,12.14-6.7,17.87.5,2.56,2.01,5.97,6.35,7.7,4.78,1.91,10.5,2.59,15.55,3.19,6.11.73,11.38,1.36,14.2,3.87,1.79,1.59,2.64,1.75,2.97,1.7.53-.07,1.03-.83,1.61-1.71.37-.56.78-1.19,1.3-1.78,1.13-1.3,3.6-2.59,6.72-4.24,7.2-3.79,17.06-8.99,16.85-17.33-.01-.59.46-1.09,1.05-1.1.61.03,1.09.46,1.1,1.05.24,9.68-10.74,15.47-18.01,19.29-2.81,1.48-5.23,2.76-6.1,3.75-.41.47-.77,1.02-1.11,1.54-.8,1.21-1.62,2.47-3.13,2.67-.13.02-.26.03-.4.03Z" fill="#DC0F38" stroke="#000000" stroke-width="1"/>
<path class="cls-1" d="M98.82,94.14c-1.06,0-2.13-.09-3.19-.29-5.84-1.06-10.48-4.85-12.72-10.4-.22-.55.04-1.18.6-1.4.55-.22,1.18.04,1.4.6,1.96,4.85,6.01,8.16,11.1,9.09,5.27.95,10.72-.84,14.26-4.69,4.69-5.1,4.75-11.82,4.79-17.22.03-3.18.05-5.92.95-7.93.3-.66.58-1.27.85-1.84,1.78-3.79,2.2-4.69-.47-6.53-2.88-1.98-4.64-5.95-6.35-9.8-2.63-5.93-5.12-11.53-11.16-10.54-.59.1-1.14-.3-1.24-.89-.09-.59.3-1.14.89-1.24,7.7-1.25,10.77,5.68,13.48,11.79,1.66,3.74,3.22,7.26,5.6,8.9,4.18,2.87,3,5.4,1.21,9.22-.26.56-.54,1.15-.83,1.8-.72,1.6-.73,4.13-.76,7.07-.05,5.77-.1,12.95-5.36,18.66-3.32,3.61-8.12,5.64-13.05,5.64Z" fill="#DC0F38" stroke="#000000" stroke-width="1"/>
</g>
</g>
<g>
<path class="cls-1" d="M28.91,112.47c1.56.01,2.82,1.29,2.8,2.85,0,1.56-1.29,2.81-2.86,2.8-1.56-.02-2.81-1.29-2.8-2.85.02-1.56,1.3-2.82,2.86-2.8Z" fill="#DC0F38" stroke="#000000" stroke-width="1"/>
<path class="cls-1" d="M97.31,109.45c.52,1.09.06,2.38-1.02,2.9-1.08.52-2.38.06-2.9-1.02-.52-1.08-.06-2.38,1.02-2.89,1.08-.52,2.38-.06,2.89,1.02Z" fill="#DC0F38" stroke="#000000" stroke-width="1"/>
<path class="cls-1" d="M24.72,103.1c.74.81.68,2.07-.13,2.81-.81.74-2.07.68-2.8-.13-.74-.81-.68-2.06.13-2.8.81-.74,2.06-.68,2.8.13Z" fill="#DC0F38" stroke="#000000" stroke-width="1"/>
<path class="cls-1" d="M12.32,115.3c0,.72-.59,1.31-1.31,1.31s-1.31-.59-1.31-1.31.59-1.31,1.31-1.31,1.31.59,1.31,1.31Z" fill="#DC0F38" stroke="#000000" stroke-width="1"/>
<path class="cls-1" d="M2.01,41.24c1.09.01,1.97.91,1.96,2.01-.01,1.09-.91,1.97-2,1.96-1.1-.01-1.98-.91-1.97-2,0-1.1.91-1.98,2.01-1.97Z" fill="#DC0F38" stroke="#000000" stroke-width="1"/>
<path class="cls-1" d="M105.11,101.14c0,.72-.59,1.31-1.3,1.31s-1.32-.59-1.32-1.31.59-1.31,1.32-1.31,1.3.59,1.3,1.31Z" fill="#DC0F38" stroke="#000000" stroke-width="1"/>
<path class="cls-1" d="M21.31,18.84c0,.73-.59,1.31-1.31,1.31s-1.31-.59-1.31-1.31.59-1.31,1.31-1.31,1.31.59,1.31,1.31Z" fill="#DC0F38" stroke="#000000" stroke-width="1"/>
<path class="cls-1" d="M109.71,22.74c0,1.56-1.26,2.83-2.83,2.83s-2.83-1.27-2.83-2.83,1.27-2.83,2.83-2.83,2.83,1.27,2.83,2.83Z" fill="#DC0F38" stroke="#000000" stroke-width="1"/>
<path class="cls-1" d="M15.08,99.83c0,1.56-1.27,2.83-2.83,2.83s-2.83-1.26-2.83-2.83,1.26-2.82,2.83-2.82,2.83,1.26,2.83,2.82Z" fill="#DC0F38" stroke="#000000" stroke-width="1"/>
<path class="cls-1" d="M16.66,25.4c1.19.01,2.16,1,2.15,2.19,0,1.2-.99,2.16-2.19,2.15-1.2-.01-2.17-.99-2.15-2.19,0-1.2.99-2.16,2.19-2.15Z" fill="#DC0F38" stroke="#000000" stroke-width="1"/>
<path class="cls-1" d="M64.39,2.31c0,.72-.59,1.31-1.32,1.31s-1.31-.59-1.31-1.31.59-1.31,1.31-1.31,1.32.59,1.32,1.31Z" fill="#DC0F38" stroke="#000000" stroke-width="1"/>
<g>
<path class="cls-1" d="M103.8,5.37c-1.52,2.37-5,3.64-7.68,2.77,1.51-2.38,6.86-3.04,7.68-2.77Z" fill="#DC0F38" stroke="#000000" stroke-width="1"/>
<path class="cls-1" d="M96.06,8.16s.04-.01.05-.02c0,.01,0,.03,0,.04,2.7.75,4.95,5.58,4.95,6.43-2.54-.66-4.69-3.24-4.98-5.87-.33,2.71-3.8,5.91-4.56,6.16-.17-2.79,1.88-5.84,4.53-6.74h0s0,0,0,0Z" fill="#DC0F38" stroke="#000000" stroke-width="1"/>
<path class="cls-1" d="M95.79,0c.54.66,1.89,5.8.29,8.11,0,0,.02.02.02.03-.02,0-.03.01-.05.02,0,0,0,0,0,0,0,0,0,0,0,0-2.63.98-7.28-1.6-7.79-2.29,2.4-.94,5.59-.16,7.39,1.73-1.4-2.21-1.37-5.5.14-7.6Z" fill="#DC0F38" stroke="#000000" stroke-width="1"/>
</g>
</g>
</g>
</g>
</g>
</svg>