<?xml version="1.0" encoding="UTF-8"?>
<svg id="Layer_1" data-name="Layer 1" xmlns="http://www.w3.org/2000/svg" viewBox="0 0 330 392">
  <defs>
    <style>
      .cls-1 {
        fill: #3d3c3a;
      }

      .cls-2 {
        fill: #be7929;
      }

      .cls-3 {
        fill: #9a211f;
      }

      .cls-4 {
        fill: #d8d6d5;
      }

      .cls-5 {
        fill: #e48d2d;
      }

      .cls-6 {
        fill: #323330;
      }

      .cls-7 {
        fill: #eb8c2c;
      }

      .cls-8 {
        fill: #b0aeaa;
      }

      .cls-9 {
        fill: #c0b9b5;
      }

      .cls-10 {
        fill: #80807e;
      }

      .cls-11 {
        fill: #d37f28;
      }

      .cls-12 {
        fill: #d8d6d4;
      }

      .cls-13 {
        fill: #dad9d8;
      }

      .cls-14 {
        fill: #171816;
      }

      .cls-15 {
        fill: #e3e2e1;
      }

      .cls-16 {
        fill: #b4b2af;
      }

      .cls-17 {
        fill: #1e1f1d;
      }

      .cls-18 {
        fill: #dc6420;
      }

      .cls-19 {
        fill: #d8956b;
      }

      .cls-20 {
        fill: #6b6b68;
      }

      .cls-21 {
        fill: #de6921;
      }

      .cls-22 {
        fill: #d22629;
      }

      .cls-23 {
        fill: #d4d3ce;
      }

      .cls-24 {
        fill: #c28081;
      }

      .cls-25 {
        fill: #d4d3d1;
      }

      .cls-26 {
        fill: #92918f;
      }

      .cls-27 {
        fill: #cdcbc8;
      }

      .cls-28 {
        fill: #8b2121;
      }

      .cls-29 {
        fill: #c2c0bd;
      }

      .cls-30 {
        fill: #d9842a;
      }

      .cls-31 {
        fill: #757573;
      }

      .cls-32 {
        fill: #6c6a69;
      }

      .cls-33 {
        fill: #521d1c;
      }

      .cls-34 {
        fill: #323230;
      }

      .cls-35 {
        fill: #151614;
      }

      .cls-36 {
        fill: #a5a3a1;
      }

      .cls-37 {
        fill: #de6821;
      }

      .cls-38 {
        fill: #de8428;
      }

      .cls-39 {
        fill: #5a5a57;
      }

      .cls-40 {
        fill: #797874;
      }

      .cls-41 {
        fill: #c5c4c2;
      }

      .cls-42 {
        fill: #9f2122;
      }

      .cls-43 {
        fill: #b07a71;
      }

      .cls-44 {
        fill: #b1b0ad;
      }

      .cls-45 {
        fill: #d8d7d6;
      }

      .cls-46 {
        fill: #838382;
      }

      .cls-47 {
        fill: #7a7a79;
      }

      .cls-48 {
        fill: #161715;
      }

      .cls-49 {
        fill: #989797;
      }

      .cls-50 {
        fill: #dedddb;
      }

      .cls-51 {
        fill: #e9a782;
      }

      .cls-52 {
        fill: #2e2e2b;
      }

      .cls-53 {
        fill: #c9c7c5;
      }

      .cls-54 {
        fill: #dbdad9;
      }

      .cls-55 {
        fill: #b0afac;
      }

      .cls-56 {
        fill: #e0ba4a;
      }

      .cls-57 {
        fill: #d28029;
      }

      .cls-58 {
        fill: #3e3e3b;
      }

      .cls-59 {
        fill: #2d2e2b;
      }

      .cls-60 {
        fill: #e5a231;
      }

      .cls-61 {
        fill: #f2b741;
      }

      .cls-62 {
        fill: #535350;
      }

      .cls-63 {
        fill: #df8328;
      }

      .cls-64 {
        fill: #1d1d1a;
      }

      .cls-65 {
        fill: #971f20;
      }

      .cls-66 {
        fill: #e5e5e5;
      }

      .cls-67 {
        fill: #a23535;
      }

      .cls-68 {
        fill: #bf7b7f;
      }

      .cls-69 {
        fill: #c8c7c6;
      }

      .cls-70 {
        fill: #535352;
      }

      .cls-71 {
        fill: #c6c2bd;
      }

      .cls-72 {
        fill: #ef952f;
      }

      .cls-73 {
        fill: #971f1e;
      }

      .cls-74 {
        fill: #c0bebb;
      }

      .cls-75 {
        fill: #433118;
      }

      .cls-76 {
        fill: #c77a28;
      }

      .cls-77 {
        fill: #e08528;
      }

      .cls-78 {
        fill: #8b8b88;
      }

      .cls-79 {
        fill: #232422;
      }

      .cls-80 {
        fill: #222321;
      }

      .cls-81 {
        fill: #cdccca;
      }

      .cls-82 {
        fill: #c6c5c4;
      }

      .cls-83 {
        fill: #cac8c6;
      }

      .cls-84 {
        fill: #b6676b;
      }

      .cls-85 {
        fill: #812221;
      }

      .cls-86 {
        fill: #dfc1c3;
      }

      .cls-87 {
        fill: #d58128;
      }

      .cls-88 {
        fill: #4b4a48;
      }

      .cls-89 {
        fill: #bab8b6;
      }

      .cls-90 {
        fill: #e38628;
      }

      .cls-91 {
        fill: #ebaf8c;
      }

      .cls-92 {
        fill: #9f3131;
      }

      .cls-93 {
        fill: #383834;
      }

      .cls-94 {
        fill: #92625e;
      }

      .cls-95 {
        fill: #1b1b19;
      }

      .cls-96 {
        fill: #c92728;
      }

      .cls-97 {
        fill: #1e1d1c;
      }

      .cls-98 {
        fill: #494846;
      }

      .cls-99 {
        fill: #aeaca9;
      }

      .cls-100 {
        fill: #2c2d2a;
      }

      .cls-101 {
        fill: #b6b4b1;
      }

      .cls-102 {
        fill: #c97a28;
      }

      .cls-103 {
        fill: #61615f;
      }

      .cls-104 {
        fill: #d98127;
      }

      .cls-105 {
        fill: #595a59;
      }

      .cls-106 {
        fill: #dc8228;
      }

      .cls-107 {
        fill: #a0302f;
      }

      .cls-108 {
        fill: #9f302f;
      }

      .cls-109 {
        fill: #c07879;
      }

      .cls-110 {
        fill: #c8c6c5;
      }

      .cls-111 {
        fill: #afafae;
      }

      .cls-112 {
        fill: #363735;
      }

      .cls-113 {
        fill: #982526;
      }

      .cls-114 {
        fill: #141613;
      }

      .cls-115 {
        fill: #161614;
      }

      .cls-116 {
        fill: #cd7f29;
      }

      .cls-117 {
        fill: #c3bdb6;
      }

      .cls-118 {
        fill: #bf7929;
      }

      .cls-119 {
        fill: #6b6b6a;
      }

      .cls-120 {
        fill: #a73833;
      }

      .cls-121 {
        fill: #959493;
      }

      .cls-122 {
        fill: #d88229;
      }

      .cls-123 {
        fill: #757571;
      }

      .cls-124 {
        fill: #f7f7f7;
      }

      .cls-125 {
        fill: #c0bfbc;
      }

      .cls-126 {
        fill: #a3a2a1;
      }

      .cls-127 {
        fill: #161615;
      }

      .cls-128 {
        fill: #cecbc7;
      }

      .cls-129 {
        fill: #fefefe;
      }

      .cls-130 {
        fill: #a12221;
      }

      .cls-131 {
        fill: #d4d2d1;
      }

      .cls-132 {
        fill: #e1e1de;
      }

      .cls-133 {
        fill: #232322;
      }

      .cls-134 {
        fill: #20211f;
      }

      .cls-135 {
        fill: #bcbbb9;
      }

      .cls-136 {
        fill: #bd7728;
      }

      .cls-137 {
        fill: #ec9330;
      }

      .cls-138 {
        fill: #10100f;
      }

      .cls-139 {
        fill: #2c2c2b;
      }

      .cls-140 {
        fill: #5e5e5d;
      }

      .cls-141 {
        fill: #d88228;
      }

      .cls-142 {
        fill: #5f5e5d;
      }

      .cls-143 {
        fill: #c7c5c2;
      }

      .cls-144 {
        fill: #b7b4b1;
      }

      .cls-145 {
        fill: #b66565;
      }

      .cls-146 {
        fill: #931e1f;
      }

      .cls-147 {
        fill: #a03131;
      }

      .cls-148 {
        fill: #414240;
      }

      .cls-149 {
        fill: #484946;
      }

      .cls-150 {
        fill: #c2797b;
      }

      .cls-151 {
        fill: #d6812a;
      }

      .cls-152 {
        fill: #cf7b27;
      }

      .cls-153 {
        fill: #734f24;
      }

      .cls-154 {
        fill: #b2ada6;
      }

      .cls-155 {
        fill: #eee2e2;
      }

      .cls-156 {
        fill: #6c2a29;
      }

      .cls-157 {
        fill: #be7728;
      }

      .cls-158 {
        fill: #a13333;
      }

      .cls-159 {
        fill: #eedfe0;
      }

      .cls-160 {
        fill: #373734;
      }

      .cls-161 {
        fill: #bcbab8;
      }

      .cls-162 {
        fill: #ecbfa5;
      }

      .cls-163 {
        fill: #989287;
      }

      .cls-164 {
        fill: #aa4443;
      }

      .cls-165 {
        fill: #eaad8a;
      }

      .cls-166 {
        fill: #be792b;
      }

      .cls-167 {
        fill: #474645;
      }

      .cls-168 {
        fill: #aa4445;
      }

      .cls-169 {
        fill: #b05b60;
      }

      .cls-170 {
        fill: #dcdcda;
      }

      .cls-171 {
        fill: #414140;
      }

      .cls-172 {
        fill: #c87e2a;
      }

      .cls-173 {
        fill: #655a43;
      }

      .cls-174 {
        fill: #825520;
      }

      .cls-175 {
        fill: #0f0f0e;
      }

      .cls-176 {
        fill: #cfcfcd;
      }

      .cls-177 {
        fill: #d3d2d0;
      }

      .cls-178 {
        fill: #bebdbb;
      }

      .cls-179 {
        fill: #bdbbb9;
      }

      .cls-180 {
        fill: #6b6a68;
      }

      .cls-181 {
        fill: #e18528;
      }

      .cls-182 {
        fill: #46413b;
      }

      .cls-183 {
        fill: #53524f;
      }

      .cls-184 {
        fill: #523c1b;
      }

      .cls-185 {
        fill: #981e1e;
      }

      .cls-186 {
        fill: #eda230;
      }

      .cls-187 {
        fill: #e8ac8e;
      }

      .cls-188 {
        fill: #d07d28;
      }

      .cls-189 {
        fill: #e42b2e;
      }

      .cls-190 {
        fill: #bdbbb7;
      }

      .cls-191 {
        fill: #d1a4a5;
      }

      .cls-192 {
        fill: #969693;
      }

      .cls-193 {
        fill: #9f6824;
      }

      .cls-194 {
        fill: #dad1c6;
      }

      .cls-195 {
        fill: #c7c6c4;
      }
    </style>
  </defs>
  <g id="GUJw7z">
    <g>
      <rect class="cls-129" width="330" height="392"/>
      <path class="cls-35" d="M138,67l26.22-10.28c13.14-3.6,27.53-4.9,41.16-3.6,8.46.81,17.29,4.35,25.62,5.87-2.56-12.66,4.33-8.92,10.92-3.41,7.18,6.01,5.15,10.01,8.38,14.14,1.9,2.42,10.63,6.42,13.64,8.84,3.56,2.87,7.43,7.32,8.02,12.03.41,3.24-1.19,5.83-1,7.76.07.75,6.34,4.85,7.04,5.65,2.69-.08,3.01-.02,1,2,.12.25-.1.68,0,1,2.43,1.24,2.77,2.24,1,3,.6,11.78-3.21,9.78-8.43,16.07-2.91,3.51-.82,3.52-5.57,6.93q-.35-6.22,0,0c-1.65,1.19-2.68,3.78-6,2.99-.96-.9,6.48-10.76-.48-10.02-3.43.37-6.2,10.06-12.52,8.01-.37-.28,4.05-4.98,3.07-8.4-8.65-5.34-7.95,9.01-10.07,14.4,3.64,1.37,11.67-6.03,12.07-.48.08,1.17-6.56,13.89-7.25,14.31-.89.54-3.12-.06-4.8.69-5.47,2.41-2.91,7.02-13.02,4.49-1-1.14-2.67-1.8-5-2-1.3-1.29-2.64-2.29-4-3-.58-.26-2.13.18-3,0-.3-.85,1-1.7,1-1.99-.06-1.27-.89-1.72-2-2-.48-.35-2.38.79-2-.98,2.24-.09,3.33-2.16,3.99-4.01l-5,.98c4.26-8.6,2.38-13.52-5.94-17.55-4.45-2.15-8.21-1.66-12.61.51-8.17,4.04-2.77,7.06-1.69,12.78.87,4.6.96,15.02.01,19.55-.41,1.94-2.93,4.51-2.62,6.07s5.93,6.07,4.85,9.64c9.47-3.99,20.68-1.4,29.67-4.81,6.63-2.52,8.79-8.17,14.39-11.61,2.6-1.6,5.82-1.99,8.3-3.71s2.12-3.98,5.32-4.62c10.8-2.18,9.74,4.29,18.32,6.76l2,.68c-.63,2.35-.96,4.79-1,7.32.61,4.74,2.03,3.39,3,5,3.12.07,2.36,2.02,1,4-2.11,1.77-3.47,2.92-4,6-.57,2.17-1.24,2.51-2,1-2.26,1.16-3.61-.77-3-3-1.49.65-3.53.71-5,0,.24,1.96-3.17,2.25-5,2-.2,1.2-1.2,1.53-3,1-.95.82-.28,1.16,2,1-.03-1.51,1.67-1.26,3-1,.4-2.39,5.26-1.96,6,0,1.77,1.13,3.44,2.8,5,5,1.45-.72,1.65.69,1,2,2.76.27,3.01,1.16,1,3-4.88,2.98-7.54,9.36-13.99,8.51l2.98-7.51c-7.41,6.07-13.12,2.27-20.66,2.39-11.02.17-28.72,14.79-41.33,18.61l-5.64.91c-.13,1.65-.59,1.64-1.36.09-.15,3.5-8.42-.9-6.03-3.42,3.61.42,6.95.23,10.03-.58.06-.44.73-.78,2-1l.51-1.41c7.11-2.53,13.95-5.4,20.49-8.59,2.18-1.86,1.84-2.2-1-1-6.15,4.73-16.36,10.84-24,9-5.08.55-10.08,1.22-15,2h-1c-2.68,2.01-9.08-1.32-7-5-1.29-.68-2.75-1.56-2-3-9.9-7.09-15.56-22.01-16-34-1.86-.76-1.5-4.99-1-7l-1.06-.35-.94-8.65c-1.01,1.28-.72,7.13,0,10,.35.87.69,1.87,1,3,.83,2.11,1.17,4.78,1,8l1.33.81c2.23,9.66,6.22,18.99,12.78,26.51l-.11,1.68-1.01,2.16c-21.8,4.07-8.49,21.99,5.84,25.63,3.11,2.68.09,16.32-2.05,19.34-2.61,3.68-4.71,5.14-9.11,5.95,19.74,13.56,36.44-11.11,25.91-29.31-1.47-4.22-1.66-7.81-.57-10.78-.24-1.42,5.65.89,5.91,1.11,2.99,8.16,5.62,11.34,12.83,15.9.28.74-3.49,13.8-5.22,14.45l.87,2.64c4.07,1.18,12.16,7.18,7.6,11.04,2.02,5.99-2.35,6.63-6.95,4.94,1.7,6.77,2.94,14.07-6.83,9.44l-2.67,2.59c5.56,4.56-8.81,11.5-10.64,5.82,1.51-3.64.38-3.62-2.82-2.97,2.28,7.13.67,11.55-4.83,13.25-2.61,5.07-5.8,8.67-10.48,2.98,1.8,3.57,1.88,6.51.24,8.81-1.46,2.51-2.4,5.51-2.83,9.02l-2.17-1.02c-8.27-13.7-4.93,5.09-6.45,10.05-1.44,4.68-6.58,5.5-7.54.41-1.17-6.23,5.83-12.75,3.77-21.75-1.22-5.34-4.62-5.28-8.79-5.71-1.7.36-3.03,1.69-4,4-4.26,4.25-4.78,9.3-6,15-1.03,1.98-1.36,3.98-1,6-.45,2.71-.72,5.27-1,8l-1,3c-.1,1.62-.69,5.26-1,7-1.1.85-1.43,2.18-1,4-.28.76-1.43,2.17-2,3-8.94,4.79-15.93-8.25-7.46-14.71l2.46-6.29c2.84-5.79,5.49-10.58,7-17,1.3-.33,1.97-.99,2-2-.51-.74-.75-1.43,0-2,1.21-1.92,1.21-3.26,0-4-.61-.07-.94-.74-1-2-3.99-4.58-4.08-6.06-11.06-4.55-9.4,2.04-9.48,11.52-14.96,14.06-3.2,1.48-6.03-.43-6.06-3.99-.06-7.65,16.48-13.6,16.82-21.2.22-5-6.87-6.55-10.75-6.32-1.08.98-6.76-6.33-6.85-6.84l.85-3.16c.07-.22.02-.69,0-1,1.74-2.03,1.82-8.74-1.69-4.64l-2.31-.36c-.87.32-2.86-.24-4,0-2.1-.6-3.77-.6-5,0-.97.79-3.01.78-4,0,.02-.25-.93-1.15-.44-2,.78-1.36,3.07-2.46,3.44-4,.65-1.47,2.07-1.92,4.26-1.33-.47-3.52,1.03-6.4,4.48-8.64.12-5.44,3.16-8.44,8.74-7.59l1.49-1.38c-3.14-4.7-1.05-5.89,3.55-7.32l.55-1.45c-3.16-1.26-5.22-7.27-1.93-9.43-8.99-2.18-4-13.94,1.87-7.86.58-1.46,1.39-1.59,2.66-1.08-28.73-49.16-13.95-102.92,33.82-133.23.31-.2.88,0,1.52.31,12.05-10.14,29.95-16.11,45.61-17.9,8.28-.95,19.39-1.63,26.39,1.9,10.04-.62,22.7,5.13,31.98,9.77,8.57,4.29,21.16,10.86,25.02,19.23,1.09,1.72,1.42,1.39,1-1-14.56-14.5-34.62-23.83-54.9-28.58l-1.1-1.42c-2.14,1.1-7.73.78-8-2-1.88.76-4.13.86-6,0l-1.92,1.3c-18.97.03-37.38,5.47-53.81,14.84l-2.27-.14c-11.01,8.41-21.2,17.67-30.56,27.79-25.64,30.53-24.86,57.27-14.22,93.68.44,1.51.32,3.03-.22,4.52,2.11,4.47,2.11,6.47,0,6-2.46,1.35-3.16.45-2-2-3.28-9.13-6.74-18.35-8.56-27.94-.63-3.34-1.04-15.56-1.93-17.07-3.08-5.25-23.32,3.18-27.07-8.93-2.11-6.81,4.51-28.42,8.01-35.1,5.22-9.95,16.28-17.22,20.56-27.43,3.21-7.67-.67-8.92-1.03-16.07-.47-9.51,2.83-6.47,6.49-10.5,2.1-2.31,1.53-5.52,7.13-5.98,1.95-.16,3.89.85,6.39,1.02,1.39-2.08,3.72-2.08,7,0,1.67,1,3.36,2,5,3,1.8-2.05,2.73-1.76,3,1,2.1,1.31,3.76,3.82,6,5,.8,1.14,1.8,2.14,3,3,.63,2.03,1.27,4,2,6,.96.58,1.96.24,3-1,.71-.96,1.38-1.29,2-1l4-2c-.26-.92.08-1.26,1-1Z"/>
      <path class="cls-35" d="M194,212c-.19.27.27,1.57-.09,1.87s-7.52-.97-8.91-.86c.98,3.24,1.66,3.41,5,2.99,1.58,3.51,3.58,6.85,6,10,13.56,12.56,28.3,9.47,43.68,2.18,6.84-3.24,24.48-17.54,31.29-11.64,2.48,2.15,2.72,6.32,1.09,9.03-2.72,4.54-26.96,7.95-33.82,10.17-6.02,1.95-24.22,7.97-18.74,17.28,3.09,5.24,26.71-3.37,19.6,6.39-2.48,3.4-31.12-6.85-25.57,8.54,4.88,13.51,31.74,12.18,42.69,15.33,6.19,1.78,14.51,7.84,9.27,14.71-6.59,8.64-22.17-4.7-28.82-8.16-6.68-3.48-29.65-14.35-33.24-2.87-3.51,11.23,21.09,18.07,13.32,25.8-7.04,7.01-12.91-9.03-16.24-12.77-8.3-9.29-18.55-6.71-17.43,6.38.93,10.86,6.64,18.81,11.92,27.63,2.53,6.96,1.95,12.61-7,11-1.15-.58-1.32-1.17-2-2-1.02-2.89-2.02-5.56-3-8-.81-4.3-1.44-8.67-2-13,.45-1.27.12-2.61-1-4-1.99-4.85-4.25-11.65-9.09-14.42-3.77-2.16-7.75-1.42-9.91,2.42-.3.58-.63.56-1,0-.88-2.3-1.17-6.33-2.22-8.32s-3.2-.93-2.78-3.16c5.95-4.83,3.81-1.96,5.3.13,5.56,7.81,5.95.68,8.64-1.93,1.44-1.39,4.12-.83,4.87-3.41.54-1.85-1.48-10.57-.82-11.29.6-.65,5.27,1.62,5.96.97.15-.15.14-3.9,1.54-3.96.13,0,2.41.88,2.5.98,1.36,1.62-4.11,6.57-2.99,9l8.99-4.01c-7.6-5.02,3.28-3.78.54-10.03-2.49-3.11-5.59,2.42-7.55,1.58-3.24-1.39-2.68-5.95-3.12-6.41s-4.08-.2-5.29-1.04c-.86-.6-.84-2.8-.58-3.08.65-.69,4.23,1.39,4.86.92.32-.24.46-1.8,1.1-2.41,5.06-4.8,11.85-2.25,6.22,1.2-.61.37-1.96-.11-2.25.9-.5,1.7-.07,6.03,2.06,6.39.5-6.55,5.26-5.02,5.02,1l4.98-2.99c1.09,1.2-5.57,9.37.53,8.02,4.78-1.06.79-3.82.48-6.6-.85-7.59,5.89-2.54,7-3.42,1.99-1.58-1.15-4.74-1-4.98.09-.14,2.7-.39,3-1.53.15-.57-5.09-4.99-6.14-5.9-.73-.63-2.25-.32-2.94-1.24-.16-.21-1.82-4.56-1.88-4.9-.11-.65,1.89-.65,2.48-1.46.44-.6,1.6-7.13,1.84-8.3.22-1.08,1.81-2.17,1.64-3.13-.26-1.43-7.51-3.79-8.49-5.57-.89-1.64-.23-3.68-.76-5.24-2.09-6.09-2.93-4.26-7.75-6.75-2.38,2.46-8.59-1.74-7-5h1c5.55.12,11.22.46,17,1Z"/>
      <path class="cls-35" d="M58,167c5.58,2.99,19.22,21.65,24.95,27.52,3.36,3.44,5.61,4.87,9.05,7.48.97.74,1.65,1.75,2,2,.93-.89,2.26-.23,4,2,2.97-.25,3.61,2.77,1,4-4.24-.54-7.52,2.38-2.9,5.44,1.48.98,4.06-.32,2.65,4.06-.22.67-1.87.04-1.79,1.91.17,3.78,3.62,3.97,3.88,5.15,1.2,5.49-5.89,4.45-5.83,5.93.02.53,4.63,3.51-.49,6.59-1.43.86-2.58-.16-3.75.19-5.33,1.6-2.87,3.55-4.29,6.69-.68,1.5-3.4,2.65-4.01,4.06-1.2,2.82,2.33,7.44-6.48,4.97,2.25-9.46-11.58-13.34-18.52-13.98-6.27-.58-16.86,1.62-21.53.58-6.63-1.47-8.88-9.9-2.23-11.37,7.97-1.76,24.37,7.29,34.04,8.52,3.79.48,16.93,1.99,16.89-3.24-.03-3.36-4.27-2.45-3.64-5.49,7.44,1.9,7.57-.22,11.99-4.01.65-1.89.97-3.17,0-5-.35-2.99-2.54-7.3-4-10-.67-3.92-1.13-6.35-5-8-.43-.57-2.02-1.82-3-3-.84-2.19-1.64-4.26-4-5-3.95-1.33-14.53-10.15-20-13l-2.19-1.77c-3.93-.75-7.2-2.49-9.81-5.23-.67-1.1-1.96-1.47-1.96-3.5s1.29-2.4,1.96-3.5c4.3-3.79,7.57-5.08,13-1Z"/>
      <path class="cls-127" d="M161,306c-4.22,7.49-2.24,24.81-.71,33.21s9.6,28.09,3.74,35.32c-2.78,3.42-9.37,3.48-11.91-.15-5.49-7.86,2.15-29.71,2.87-39.89.35-5.03-1.08-16.93.01-20.49.04-.12,1.46-.47,1.81-1.67.91-3.16-1.47-5.45,3.19-6.33h1Z"/>
      <path class="cls-35" d="M90,267v1.32c2.83,1.88,4.68,5.48,6,8.68-17.46,1-24.71,17.86-36.45,22.04-7.09,2.53-13.24-.03-11.34-8.33s19.12-9.44,26-11.99c4.69-1.73,14.21-6.81,15.78-11.72Z"/>
      <path class="cls-14" d="M257,272c2.44-8.17,28.7-38.1,36.89-25.39,3.27,5.06-1.12,8.34-5.2,10.6-9.98,5.52-19.38,7.76-29.7,14.8-1.23.92-1.89.92-2,0Z"/>
      <path class="cls-95" d="M52,219c2.18,1.72,5.49,4.39,6.73,6.83.11.21-.25.65-.73,1.17-4.44-4.39-30.8-7.62-28.9-15.31,2.24-9.06,19.48,3.98,22.9,7.31Z"/>
      <path class="cls-108" d="M296,140c-3.6,18.14-8.3,24.48-22,36-1-.94-.66-3.43-1-4,9.37-6.56,18.95-20.9,22-32,.28-.87.62-.86,1,0Z"/>
      <path class="cls-67" d="M288,126c-1.62,12.07-3.46,18.81-10.58,28.92-1.02,1.45-5.98,5.92-6.14,6.33-.75,1.86.55,4.56-1.28,5.76-.17-1.32-1.11-7.61-1-8,.03-.12,1.38-.62,1.97-1.48,2.69-3.92,5.89-7.69,8.2-11.85,3.58-6.46,5.4-14.71,8.83-19.67Z"/>
      <path class="cls-107" d="M296,168c-1.45,11.24-17.73,19.95-26,25-.63-.9-.69-1.99-1-3-.32-1.53-.3-1.89,1-1,4.02-1.61,8.71-4.64,12.01-7.49,4.22-3.64,11.16-11.79,13.99-16.51,1.68.51,1.11,1.83,0,3Z"/>
      <path class="cls-17" d="M248.76,249.76c-4.32,4.28-14.82-1.27-9.21-7.72s13.99,2.98,9.21,7.72Z"/>
      <path class="cls-92" d="M116,25c.1,9.69-4.44,19.65-9.99,27.51-.16.38,2.13.98,2.99,1.49-2.32-.11-4.69.15-7,0,6.33-10.53,10.72-20.92,13-33,1.15-.58,1.48.75,1,4Z"/>
      <path class="cls-158" d="M129,33c-2.27,10.09-4.9,17.21-12,25-.28-.18-1.68-.19-3-1,6.42-8.94,11.14-17.29,14-28,1.02.14,1.36,1.48,1,4Z"/>
      <path class="cls-147" d="M138,46c-2.46,6.33-5.98,15.84-12,20-2.29,1.58-5.36.23-3-3,4.33-5.94,10.15-10.17,14-18,1.35-1.33,1.29-.81,1,1Z"/>
      <path class="cls-115" d="M119,347c-.25.36.72,1.52-1.19,2.32-4.94,2.05-10.88.7-11.62-5.08-.89-6.88,5.09-12.69,7.82-18.24-.59,1.08-1.26,6.61-1.5,6.95-.76,1.06-2.52,1.1-3.24,2.67-2.54,5.62,3.91,11.83,9.74,11.38Z"/>
      <path class="cls-133" d="M252.86,332.14c.61,1.01-.05,3.49.14,4.86-3.91-.21-11.7.89-9.89-4.39.96-2.8,9.08-1.58,9.74-.47Z"/>
      <path class="cls-35" d="M86,261c.29-.11,1.52-2.53,3.71-2.85,4.31-.64,3.07,4.19,3.17,7.42.09,2.98-1.71.96-2.88.43-.19-2.7-2.29-3.36-4-5Z"/>
      <path class="cls-48" d="M45,175c4.15,2.46,7.09,4.45,11.49,1.99l.51,5.01c-2.69-1.4-7.63-1.89-10.41-4.13-1.65-1.33-1.1-2.07-1.59-2.87Z"/>
      <path class="cls-112" d="M25.91,254.09c2.95,4.06-5.1,7.15-5.84,2.28-.44-2.83,4.58-4.02,5.84-2.28Z"/>
      <path class="cls-139" d="M45.65,341.16c8.64-2.64,6.72,5.78-.01,3.72-2.12-.65-2.22-3.04.01-3.72Z"/>
      <path class="cls-47" d="M52,219c4.11,1.67,9.39,6.77,10.49,11.01-2.16-.13-3.32-1.37-4.49-3.01-1.55-2.17-3.47-5.54-6-8Z"/>
      <path class="cls-127" d="M188,345c3.68-.48,8.14-.54,8.11-5.5-.01-2.22-3.14-4.23-1.11-5.5,4.24,7.09.92,14.95-7,11Z"/>
      <path class="cls-48" d="M84,203c5.84-.25,5.79,3.01,5,8-1.01-1.87-3.79-6.38-5-8Z"/>
      <path class="cls-66" d="M197,215c-1.85.56-3.37,1.73-6,1.01l5,9.99c-2.91-2.69-6.04-5.68-6-10,1.96-.24,4.45-1.79,7-1Z"/>
      <path class="cls-91" d="M277,91c.36-.58,3.32-7.92,5-5.99.95,1.1-3.04,5.98-4,6.99-1.41,1.33-1.92.77-1-1Z"/>
      <path class="cls-169" d="M116,25c-.01-1.31.49-3.31-1-4,.29-1.55-.3-5.58,1.99-5.99l-.99,9.99Z"/>
      <path class="cls-48" d="M58,167c-1.81-.97-6.48-2.42-8.47-2.04-1.19.23.44,7.87-4.53,3.04.17-.29-.4-1.18.66-2.06,3.06-2.52,9.99-2.83,12.34,1.06Z"/>
      <path class="cls-48" d="M81,200c-1.28-1.54-3.18-2.83-4-5,.07.02.75-.95,1.35-.79,2.41.68,2.97,3.59,2.65,5.79Z"/>
      <path class="cls-145" d="M299,163c-.75,1.77-.54,4.13-3,5,.12-.96-.08-2.02,0-3,.45-.75,1.44-2.89,2-4,.94-.84,1.28-.18,1,2Z"/>
      <path class="cls-97" d="M270,189c-.04.45-.53.9-1,1-.25-.8-.94-1.71-1-2-2.98-.85-2.73-4,0-5l2-1c-.35,2.05.21,4.79,0,7Z"/>
      <path class="cls-24" d="M302,154c-.71,2.36-1.16,3.71-2,6-1.15,1.13-1.49.57-1-1,.7-1.51,1.3-4.12,2-6,.79-1.09,1.13-.76,1,1Z"/>
      <path class="cls-19" d="M286,109c-.88.36-1.88.69-3,1h-3c-.06-1.17-.7-2.03-1-3l7,2Z"/>
      <path class="cls-43" d="M139,65c-1.21,1.14-2.55,2.14-4,3-.04.67-.7,1.34-2,2-.64.29-1.12.69-2,1,2.34-3.85,5.76-7.84,9.99-10,.95,2.7-1.5,3.2-1.99,4Z"/>
      <path class="cls-35" d="M82,261c-.65.13-1.23.87-3,1l-2-1c-.53-5.86,2.33-1.8,5,0Z"/>
      <path class="cls-86" d="M288,126c.36-.53-2.29-8.05.99-8.99.91,3.3-.66,6.52-.99,8.99Z"/>
      <path class="cls-115" d="M136,297c-.69,2.05-2.79,2.79-4,4,.62-1.11-.11-3.9.96-4.53,1.59-.94,2.27.45,3.04.53Z"/>
      <path class="cls-150" d="M129,25c.44-2.29-1.29-4.68,1.99-4,.97,2.31-.79,4.62-.99,6-.78.67-1.11,0-1-2Z"/>
      <path class="cls-164" d="M130,27c-.35,2.38-.44,3.5-1,6l-1-4c.35-1.32.74-2.66,1-4l1,2Z"/>
      <path class="cls-115" d="M123,307c.2.57,3.32,1.02,1,2.51-1.29.83-1.99.15-3-.51.25-1.07.97-2.77,1-3,.43-.56.77-.23,1,1Z"/>
      <path class="cls-168" d="M140,41c-.64,2.13-1.32,3.25-2,5l-1-1c.62-1.25,1.4-3.51,2-5,.78-1.07,1.11-.74,1,1Z"/>
      <path class="cls-162" d="M293.99,101.01c-.07,1.38-6.7,2.22-6.99,1.99-.83-3.71,4.88-1.43,6.99-1.99Z"/>
      <path class="cls-48" d="M93,226c-.13-1.64.19-3.37,0-5l2.98,3.51c-.48,1.34-2.59,1.16-2.98,1.49Z"/>
      <path class="cls-37" d="M278,104l5-.99-4,2.99c-.21-.44-.93-1.92-1-2Z"/>
      <path class="cls-111" d="M222,157c2.84,1.1,11.28-3.07,5,2-1.76-.44-3.36-1.27-5-2Z"/>
      <path class="cls-84" d="M296,140h-1c.61-2.24.67-4.71,1-7,.28-.87.62-.86,1,0-.25,2.87-.45,4.21-1,7Z"/>
      <path class="cls-148" d="M218,154c1.58.19,7.58-1.97,4.99,1-.14.16-4.51.64-.99,2-2.53-1.12-2.65-2.39-4-3Z"/>
      <path class="cls-140" d="M259,272c-1.11.76-2.22,3.32-4.49,3.01l-.5-.5c.84-.79,1.92-2.17,3-2.51.52-.16,1.37.11,2,0Z"/>
      <path class="cls-3" d="M139,65c-.36.6-.62,1.6-1,2-.32.34-.64.7-1,1-1.01.62-1.68.62-2,0,1.12-1.23,1.96-2.98,3.51-3.98l.49.98Z"/>
      <path class="cls-68" d="M141,37c-.28.87-.62.86-1,0,.31-.93.37-5.05,1.5-5.01,1.83,1.42-.27,3.98-.5,5.01Z"/>
      <path class="cls-114" d="M123,301c1.75.52,1.13,2.82,0,4,.06.64-.16,1.57,0,2l-1-1c.31-2.15-.21-4.76,0-7,.66.76.79,1.75,1,2Z"/>
      <path class="cls-109" d="M145,56c-1.41,1.33-1.92.77-1-1,.55-1.11,2.46-6.13,2.99-4.99.37,2.52-.97,4.02-1.99,5.99Z"/>
      <path class="cls-73" d="M145,56c-.99,1.9-.45,3.63-2.99,2.99-.41-1.8,1.26-2.51,1.99-3.99l1,1Z"/>
      <path class="cls-138" d="M77,261c.85.07,1.73.02,2,1-2.31.16-4.69-.11-7-.01-.26-.78.99-.87,1-.99,1.32.08,2.68-.11,4,0Z"/>
      <path class="cls-115" d="M122,340c-.35,1.94-.27,2.03-1,4-1.02-1.76-1.61-4.95,1-4Z"/>
      <path class="cls-165" d="M281,97c1.24-1.06,2.17-2.37,3.99-1.99.67,2.64-1.18,1.91-2.99,2.99-1.47.94-1.96.57-1-1Z"/>
      <path class="cls-127" d="M183,335c3.63-.55.92,1.51,1.42,4.08.43,2.19,4.68,2.1,1.58,3.92-3.15-3.82-2.17-3.6-3-8Z"/>
      <path class="cls-21" d="M278,92c-.58.61-1.73,3.26-2.99,1.99-1.34-1.34,1.74-2.58,1.99-2.99l1,1Z"/>
      <path class="cls-115" d="M125,322c-1.64-.92-.1-4.73,1-6-.35,1.62-.69,4.16-1,6Z"/>
      <path class="cls-187" d="M288,109c1.18.16,5.33,1.38,4,1.99-1.89.98-4.22-.92-5-.99-.56-.49-.23-.82,1-1Z"/>
      <path class="cls-94" d="M131,71c-.44.72.5,2.18-2.51,2.99-1,.05-.29-1.44-.49-1.99.89-.65,2.02-.65,3-1Z"/>
      <path class="cls-185" d="M300,160c-.36.99-.66,2.2-1,3l-1-2c.33-.64.7-1.36,1-2l1,1Z"/>
      <path class="cls-159" d="M296,133c.14-.95-.1-2.02,0-2.99,4.05-.53,1.06,2.28.99,2.99h-1Z"/>
      <rect class="cls-124" x="139.01" y="377.01" width=".98" height="5.99"/>
      <path class="cls-18" d="M286,109c.64-.02,1.39-.08,2,0l-1,1c-1.29-.12-2.69,0-4,0,.49-1.29,1.9-.97,3-1Z"/>
      <path class="cls-155" d="M303,150c-.28.87-.62.86-1,0,.39-1.03.99-4.02,1.5-4.01,1.78,1.04-.37,3.36-.5,4.01Z"/>
      <path class="cls-31" d="M214,150h4s-2,2-2,2c0-.62-1.38-1.55-2-2Z"/>
      <path class="cls-191" d="M302,154l-1-1c.37-1,.63-2.03,1-3h1c-.35,1.73-.5,2.34-1,4Z"/>
      <path class="cls-51" d="M282,98c-.69.41-2.78,2.28-2.99,2-.52-2.08.92-2.08,1.99-3l1,1Z"/>
      <path class="cls-127" d="M181,322l-1-4c.24.58,1.68,1.3,1.85,2.66.22,1.76-.86,1.26-.85,1.34Z"/>
      <path class="cls-115" d="M124,330c-.12,1.15.09,2.19-1,3,.05-.79-3.05-3.54,1-3Z"/>
      <path class="cls-130" d="M140,41l-1-1c.41-1.03.65-1.97,1-3h1c-.36,1.6-.5,2.35-1,4Z"/>
      <rect class="cls-124" x="77.01" y="349" width=".98" height="4.99"/>
      <path class="cls-114" d="M164,203c.33-.88.66-.88,1,0,1.39.82,2.72,1.82,4,3,3.1,4.57,4.13,2.23,7,5,2.4,2.33,2.92,2.89,7,5,1.82,3.47,1.62,7.42,2.67,10.83,1.58,5.16,3.72,5.21,3.03,12.38-1.36,14.27-6.08,21.72-21.25,22.52-7.82.41-7.44-1.66-12.53-5.2-.92-.64-2.74-.23-3.65-.81-1.07-.67-2.3-5.31-4.26-6.24-2.59-1.23-5.73.16-9.37-1.63-.77-.38-10.35-6.95-10.73-7.5-1.06-1.53-.47-4.05-.97-5.63-.11-.34-4.19-2.95-.3-5.81,5.31-3.9,12.33,4.3,16.46,7.49,3.45,2.66,8.53,4.9,11.19,9.85,1.31,2.44,1.48,7.73,4.01,7.6,10.51-.56,9.28-12.41,11.6-20.19-.93-2.88-15.89-5.07-18.43-14.64-3-11.28,3.7-14.75,13.53-16.03Z"/>
      <path class="cls-90" d="M139,72c3.12-.56,2.71.74-.04,1.92l-1.96,2.08c-3.49,3.87-8.27,6.05-12.01,9.49-35.41,32.5-46.37,65.83-27.17,112.19,1.72,4.15,6.08,10.19,7.17,13.84s-4.94-1.39-5.99-1.52c-.41-1.29-.53-2.73-1-4-2.16-1.7-3.5-4.37-4-8-20.97-52.91-2.54-97.79,45-126Z"/>
      <path class="cls-29" d="M118,124c.25,7.12-1.23,13.48-.99,20.49.52,14.67,6.14,32.53,12.13,45.86,3.74,8.32,15.44,24.82,16.86,31.64.86.34.86.67,0,1-19.6-25.6-35.24-56.16-31.99-89.49.25-2.59,1.98-10.3,2.99-12.51,1.74-1.32,1.78,1.48,1,3Z"/>
      <path class="cls-181" d="M88,67c.44,4.04,1.85,7.72,2.05,11.47.83,16.23-16.35,25.74-22.59,38.49-2.04,4.16-7.18,20.46-7.41,24.68-.57,10.35,9.48,7.2,15.94,7.85-8.57,6.01-20.36,3.52-18.92-8.91.73-6.32,5.32-20.92,8.4-26.6,5.55-10.25,16.75-17.34,20.99-29,2.71-7.46.35-6.86-.48-12.98-1.84-3.77.72-12.17,2-5Z"/>
      <path class="cls-63" d="M197,56c1.91.83,4.07.72,6,0,1.11.13,5.58,1.54,8,2,1.81,1.26,1.15,1.92-2,2-25.09-4.12-50.49,3.27-72,16,.21-.23.37-2.94,2.98-3.5l-.98-.5c18.67-11.08,36.15-16.6,58-16Z"/>
      <path class="cls-77" d="M267,88c.35,1.34.31,1.63-1,1-7.67-11.36-43.39-26.77-57-29l2-2c13,2.48,22.01,5.26,33.67,11.83,6.14,3.46,19.94,12.04,22.33,18.17Z"/>
      <path class="cls-38" d="M187,145c.75,3.3.65,6.69,0,10-.67,3.17-1.44,9.88-6,8.99,8.15-19.78-.32-42.02-20.01-50.49,17.38-.2,23.15,17.2,26.01,31.5Z"/>
      <path class="cls-50" d="M258,106c2.53.98,4.86,2.31,7,4,8.2,11.34-3.25,14.24-13,13-2.9-1.22-4.92-4.37-1-5,.45-.3.82-.51.92-.42,5.06,4.61-.64,1.21-.9-.34-.06-.35.39-.78.98-1.24,1.15-1.26,2.48-2.26,4-3-2.13.37-2.11-1.55-1-3-2.52.49-2.58-.06-1-2-.87-.28-.86-.62,0-1,.85-.06,2.22-.97,4-1Z"/>
      <path class="cls-179" d="M167,203c-.47,1.42-1.03,1-2,0-.33,0-.68-.04-1,0-8.47-7.24-12.12-18.34-14-29-.81-3.15-.48-4.81,1-5,3.25,13.78,7.76,22.7,16,34Z"/>
      <path class="cls-44" d="M171,106c-1.85-.93-.77-3.38-.33-4.82,3.01-9.69,13.91-16.91,23.8-17.23,1.11-.04,3.79-.64,3.53,1.03-3.5.64-9.06,2.18-11.99,4.01.37,1.23-.65,2.78-2,2-4.61,3.54-8.32,9.27-10.66,14.63l-2.34.37Z"/>
      <path class="cls-65" d="M209,100c-9.85,5.77,9.48,17.39,9.01,23.49-.23,3.05-3.16-2.3-3.42-2.53-5.8-5.25-19.73-14.22-7.59-21.95,1.24-.24,2.34-.44,2,1Z"/>
      <path class="cls-160" d="M180,64c.32-1.25,1.7-1.39,2,0,.87.28.86.62,0,1-2.08.57-2.97,1.48-5.98,2.38-10.83,3.24-21.29,7.3-32.02,10.61-2.04-1.91,6.69-5.41,7.99-5.99.91.37,1.91.37,3,0,.11-.28-.1-.7,0-1,2.3-1.14,4.97-2.14,8-3,.38-.26.64-.72,1-1l7-1c1.25-.89,2.92-1.56,5-2,.98-.91,2.83-.55,4,0Z"/>
      <path class="cls-80" d="M169,121c.67,1.28,1.08,2.8,0,4,3.09,2.9,5.29,5.38,6.79,9.68-.68-1.17-.27-1.07,1.21.32.71,1.57,1.71,2.57,3,3,.36,1.06.68,1.86,1,3,1,5.5-.66,4.83-5-2-2.43-3.61-8.29-12.98-10.93-15.57-1.18-1.15-2.48-1.46-4.06-1.44l1.99-1.98-2.99-2c4.11-1.56,6.01.79,9,2.99Z"/>
      <path class="cls-83" d="M226,123c.45-1.53-.34-3.94,2.49-4.01,1.39-.03-.37,3.03-.49,4.01l-1,5c-.16,2.07-.31,13.05.17,13.83.66,1.47,21.47,3.34,16.82,8.16-.63.66-3.28-1.57-4.57-1.92-5.83-1.58-11.01.54-13.43-6.07-.92-6.29-.76-12.69,0-19Z"/>
      <path class="cls-122" d="M216,200c1.4-1.26,1.93-.72,1,1-5.75,3.91-14.02,9.28-21,10-1.75.4-13.61,1.1-14.06.55-.56-.68-.22-1.41.51-1.5l9.55-1.05c8.33-1.31,16.32-5.52,24-9Z"/>
      <path class="cls-113" d="M211,85c-2.54-1.63-4.54-3.3-6-5-1.64.22-2.54-1.01-1-2,3.31-2.24,13.62,3.49,13.88,6.65.36,4.53-5.11.99-6.88.35Z"/>
      <path class="cls-161" d="M201,77c-1.41-2.74-2.88-3.99-1.99-8,5.76,2.89,13.25,1.93,19.04,3.5,1.78.48,2.32.32,1.94,2.5l-18.99-1.99c.62.84.58,2.18,1,2.99,1.33,1.41.77,1.92-1,1Z"/>
      <path class="cls-188" d="M202,122c1.41.72,1.75,1.39,1,2-6.6-.55-11.28.89-16.99,4-1.69-3.41.08-3.61,3.47-5.02,4.78-1.98,7.47-2.58,12.52-.98Z"/>
      <path class="cls-106" d="M249,100c1.22,1.39.75,1.32-1,1-5.1-1.26-7.22-1.6-6.99-8,.71-.73,6.16,1.67,7.06,2.51,1.33,1.25-.93,3.61.94,4.49Z"/>
      <path class="cls-79" d="M186,89c1.35,1.66.23,2.51-.56,3.89-2.96,5.12-5.95,9.26-10.44,13.11-.72-.27-1.4-.72-1.38-1.41.05-2.01,7.88-12.26,10.38-13.59.76-.84.74-1.21,2-2Z"/>
      <path class="cls-149" d="M184,91c-3.39,3.74-8.21,10.73-9,15-.06.32.06.68,0,1-.86,1.08-1.86,2.08-3,3-3,.3-2.18-1.39-1-4,1.6-3.55,6.45-9.26,9.18-12.32,1.15-1.28,1.55-2.77,3.82-2.68Z"/>
      <path class="cls-141" d="M230,173c-4.01,4.88-4.98,4.73-11,6l-8,1c-.66.01-1.34.02-2,0-2.17-.33-2.84-1-2-2,.33-.04.67.04,1,0,2.92-.66,5.92-1,9-1,4.46-.91,8.8-2.36,13-4Z"/>
      <path class="cls-131" d="M240,113c3.34.31,5.23.2,8,0,1.4-1.71,2.6-1.11,2,1,.86.29.85.63,0,1,1.81,1.57-.75,2.13-.76,1.87-.02-.56,1.95-.47,1.76,1.13-.98,2.09-.52,3.37,1,5-6.4-.81-4.08-5.45-6.67-7.08-1.17-.73-5.63-1.64-7.33-1.92-1.01-1.52.56-1.32,2-1Z"/>
      <path class="cls-146" d="M237,129c1.19.14,1.86,1.14,2,3-.21.77-5.55,3.21-7,4-1.45-.63-1.46-1.45,0-2-.18-1.64.15-2.64,1-3-2.16-1.81-1.42-6.66,1-8,2.53-.84,3.25,3.74,3,6Z"/>
      <path class="cls-82" d="M258,99h-1c-5.22-2.32-10.85-10.63-17-13,.13.02.91-.71,2.05-.49,5.54,1.05,12.25,9.32,15.95,13.49Z"/>
      <path class="cls-189" d="M234,123c-.15,2.7-.71,5.31-1,8l-1,3c.15.54-.1,1.37,0,2-.44.24-1.84,1.21-1.99,1-.02-4.18-.35-14.36,2.99-17,2.18-.37,3.27,2.51,1,3Z"/>
      <path class="cls-87" d="M179,168c-1.04-1.12-.5-1.52,1-1,1.98,1.1,12.77,8.84,8,11.51l-9-10.51Z"/>
      <path class="cls-152" d="M192,209l-9.99,1.99c4.52-.31,9.57.47,13.99.01-.35.69-1.89.84-2,1-5.47-.56-12.08,1.26-17-1,4.7-2.66,9.8-2,15-2Z"/>
      <path class="cls-154" d="M256,155c2.03.75,2.13,1.42,0,2-4.1.34-5,4.26-9,3.99,1.43-3.1,2.66-6.76,6.64-7.01,1.6-.1,2.03.94,2.36,1.02Z"/>
      <path class="cls-89" d="M268,183c.33,1.37-.3,3.56,0,5-4.87.75-3.72-.69-5-5-1.97-.5-1.94-1.41,0-2,.19-.48.86-.81,2-1,1.05.25,2.75,1.95,3,3Z"/>
      <path class="cls-35" d="M93.98,245c1.87,1.64-1,5.59-1.02,6.5-.02.65,1.66.42,1.84.65.8,1.04-.89,2.84-1.3,2.84-3.61-.06-3.12-7.6-2.5-9.99.81.13,2.74-.2,2.98,0Z"/>
      <path class="cls-151" d="M230,173c.27-.32.39-1.8,1.43-3.03.77-.91,6.55-7.01,7.57-5.97-.37,2.37-3.16,6.24-4.94,7.56-2.13,1.58-2.73.91-4.05,1.43Z"/>
      <path class="cls-125" d="M99,62c1.53-3.24,2.43-5.24,6.55-5.96,7.12-1.24-1.25,3.22-2.55,3.96-.71,1.47-1.71,2.47-3,3-1.16,1.17-1.27.59-1-1Z"/>
      <path class="cls-132" d="M90,69c-.26-5.72-.82-13.72,7-12.99-.81,2.28-3.62,2.78-4.93,4.65s-.06,2.59-.07,3.34c-.15,2.59-.81,4.26-2,5Z"/>
      <path class="cls-30" d="M266,133c-4.51-.95,1.1-11.13,2.99-9,1.21,1.37-3.21,7.05-2.99,9Z"/>
      <path class="cls-81" d="M123,70c3.22,4.3-.39,6.08-1.01,9.99-1.71-.69-1.2-6.57-.99-7.99-2.38-2.33-.54-3.36,2-2Z"/>
      <path class="cls-102" d="M239,136.01c-2.18,4.75-2.25,6.92-8,4.98.27-1.92,7.12-5.71,8-4.98Z"/>
      <path class="cls-56" d="M264,161c7.64,3.35,1.86,7.62.01,6,.15-1.49-.52-2.68-1.01-4-2.85-1.39-2.2-3.39,1-2Z"/>
      <path class="cls-49" d="M240,113l-2,1c-3.29-.55-9.6-1.03-13-1-.87-.28-.86-.62,0-1,3.74-.28,8.82-.26,12.58-.04,1.31.08,2.22,1.02,2.42,1.04Z"/>
      <path class="cls-141" d="M198,179c1.91.15,2,1.69,0,2-.38.09-5.68,2.46-7,3-1.4,1.32-1.92.76-1-1,3.13-2.58,4.09-2.94,8-4Z"/>
      <path class="cls-99" d="M83,114c1.65-.68,1.93-.6,1,1-2.22,2.18-6.35,4.39-8,6-.3.57-.63.55-1,0,3.01-3.8,3.93-4.66,8-7Z"/>
      <path class="cls-57" d="M243.99,65l-7.99-7.99c3.91-.3,7.59,4.43,7.99,7.99Z"/>
      <path class="cls-178" d="M226,142c-1.81-4.95-1.5-13.87,0-19v19Z"/>
      <path class="cls-4" d="M117,61c-.83,1.33-2.5,2.33-5,3-.61.48-1.6.75-2.06,1.45-.69,1.07-.61,1.73-.94,2.55-1,.83-1.33.16-1-2,1.94-3.79,3.78-6.66,9-5Z"/>
      <path class="cls-156" d="M269,110c-.65-1.44-2.02-2.63,1.67-2.93,1.95-.15,1.09,1.88,1.89,1.98s1.97-1.06,2.44-1.05c1.34.84,1.36,2.6,1,4-.79.98-.86.81-2,1-.65-.24-1.31-.91-2-2-.77,1.2-1.77.86-3-1Z"/>
      <path class="cls-135" d="M245,104c2.65.33,3.98,1.33,4,3,1.33,1.41.77,1.92-1,1-1.62-1.1-7.2-4.2-9-5-.87-.28-.86-.62,0-1,2.07.55,3.92,1.46,6,2Z"/>
      <path class="cls-144" d="M261,163c-1.21.34-3.75,1.42-5,2-1.16.75-1.83.75-2,0,1.65-1.87,3.21-4.51,6-5,1.96.1,1.94,1.78,1,3Z"/>
      <path class="cls-22" d="M238,126c.49,2.1.15,3.1-1,3-1.19-3.25-1.76-3.66-3-6-.3-.56.52-2.55-1-3,2.81-2.21,4.12,3.13,5,6Z"/>
      <path class="cls-100" d="M185,63c2.36-.39,6.76-3.2,7.99-.01-3.38,1.59-7.6,1.08-10.99,2.01v-1c.07-1.61,1.79-1.74,3-1Z"/>
      <path class="cls-25" d="M255,110c.44,1.77-.23,3.04-2,2-.28.87-.62.86-1,0-.76,1.23-1.09.89-1-1,.71,1.16.59,3.01-1,3-.59-.15-1.62-1.03-2-1-4.87-1.25-4.13-3.76,1-3,1.19-1.76,2.64-1.02,2,1-2.36-2.56-1.2-3.02,2-3,.29-.65.63-.63,1,0,.54.57.79,1.26,1,2Z"/>
      <path class="cls-116" d="M248.99,141l-2.49,5.98c-3.33-3.18-1.55-6.02,2.49-5.98Z"/>
      <path class="cls-192" d="M150,162c-.12,1.66-.45,2.99-1,4-1.31-.48-.95-1.9-1-3-.85-3.25-.85-6.81,0-10,1.86,2.76,1.4,5.99,2,9Z"/>
      <path class="cls-55" d="M151,169c-1.62.85-.94,3.4-1,5-.53-3.02-1.09-4.32-1-8,.03-1.32-.5-3.31,1-4,.44,2.21.53,5,1,7Z"/>
      <path class="cls-9" d="M205,80c1.83,1.57,6.48,2.15,6,5-3.74-1.36-4.01-1.24-7-4-1.33-1.41-.77-1.92,1-1Z"/>
      <path class="cls-26" d="M260,180c1.16.23,2.16.56,3,1,.1.63-.16,1.48,0,2-1.52-.73-4.47-.36-6,0-1.67.31-2.34-.02-2-1,1.71-.59,2.84-1.71,5-2Z"/>
      <path class="cls-6" d="M245,104c1.09.28,2.91-.39,4.35.15,1.99.75.27,3.14,4.65,2.85v1h-1c-2.61,1.68-3.94,1.35-4-1-1.43-.66-2.89-1.86-4-3Z"/>
      <path class="cls-2" d="M261.01,198c-.28-3.55,1.75-5.91,4.98-7,.99,1.19-3.28,6.63-4.98,7Z"/>
      <path class="cls-12" d="M275.99,117c2.06,2.29-4.3,5.69-5.99,4.99.32-1.15,4.99-6.1,5.99-4.99Z"/>
      <path class="cls-98" d="M175,127c.66,1.95.33,2.61-1,2-.93.54-3.52-2.05-3-3-1.7-1.39-2.64-4.11,0-3,1.64,1.53,2.48,1.89,4,4Z"/>
      <path class="cls-45" d="M265,110c-2.65,1.24-3.07-1.97-3.61-1.99-1.98-.09-1.91,2.82-3.39-2.01,4.33-.08,4.67.78,7,4Z"/>
      <path class="cls-180" d="M163,68c-2.58,1.81-3.98,3.57-8,3,.14-.42-.33-1.44.11-1.85,1.31-1.23,6.08-.29,7.89-1.15Z"/>
      <path class="cls-20" d="M171,66c-1.9.6-4.18,3.36-7,1,4.18-3.18,6.66-.75,7-1Z"/>
      <path class="cls-126" d="M240,86c-2.03-.33-6.91.37-7.99-1.99,2.64.56,8.79-1.75,7.99,1.99Z"/>
      <path class="cls-48" d="M98,206c-2.02.11-2.73-1.09-4-2,2.04-1.09-.16-4.08,0-6,.89,2.26,3.01,5.34,4,8Z"/>
      <path class="cls-173" d="M262,172c.55-1.63,3.47-1.57,4,0,1.03-1.2,1.69-1.72,2,0,.86.25.84.59,0,1v1c-3.45-2.67-7.32,1.02-10-1,1.1-1.22,2.92-2.44,4-1Z"/>
      <path class="cls-186" d="M268,173c1.39.81,2.06.81,2,0,.61,1.97,1.23,2.19,0,4.99-4.08-.11-2.14-2-1.99-3.99.02-.34-.06-.71,0-1Z"/>
      <path class="cls-33" d="M210,98c3.61-.9,4.94-1.23,8.99.01-.3,2-4.42.76-5.99.99-1.71.16-2.71-.17-3-1Z"/>
      <path class="cls-88" d="M177,131c1.29,2.43,1.19,2.94,2,5-.66,1.45-1.32,1.11-2-1-1.81-.32-2.73-2.49-2-4,.06-2.11.83-1.56,2,0Z"/>
      <path class="cls-10" d="M226,105c.08.76-.92,1.09-3,1-.99-.07-2.01.05-3,0-2.32-.25-3.32-.92-3-2,3.87-.01,5.78.56,9,1Z"/>
      <path class="cls-104" d="M187,155v-10c.27,1.33,1.02,1.97,1.08,4.45.08,2.95-.67,3.59-1.08,5.55Z"/>
      <path class="cls-175" d="M148,153c.1,3.32-.14,6.68,0,10-2.18-2.85-.52-7.59-.99-11,1.13-.16.85.79.99,1Z"/>
      <path class="cls-137" d="M207,178l2,2c-.99-.03-2.02.1-3,0-1.84,1.07-5.54.31-4-2,1.63-.17,3.37.18,5,0Z"/>
      <path class="cls-118" d="M247,192c1.21-.6,2.96-.97,4,0-.28.31-.69.87-1,1-2.86.81-5.53.81-8,0-.67.98-2.8.43-2-1,2.32-.1,4.68,0,7,0Z"/>
      <path class="cls-40" d="M99,68c-.29,1.54-.15,5.57-1.99,5.99-.77-3.17.45-5.5.99-7.99.79-.69,1.12-.02,1,2Z"/>
      <path class="cls-119" d="M217,104l3,2c-2.32-.12-4.68.09-7,0-2.43-.23-2.29-1.22,0-2,1.27-.13,2.7,0,4,0Z"/>
      <path class="cls-167" d="M185,63c-.77.13-1.8.83-3,1-.64.09-1.35-.08-2,0-.69-.1-1.11-.2-1-1,1.47-.31,4.27-2.63,6,0Z"/>
      <path class="cls-163" d="M76,121c-.52.51-1.48,4.81-3.99,5-.54-2.54,1.86-3.57,2.99-5h1Z"/>
      <path class="cls-23" d="M204,78c.42.5.63,1.68,1,2l-1,1c-.52-.48-1.45-.68-2.05-1.45-.74-.95-.61-1.89-.95-2.55l1-1c.67,1.31,1.49,1.39,2,2Z"/>
      <path class="cls-117" d="M269,171c.62,1.4.35,1.86-1,1h-2c-1.47-1.34-2.8-1.34-4,0-1.3.12-2.68.8-4,1-1.93-1.45-.5-.66.88-1.58,3.94-2.6,6.48-4.17,10.12-.42Z"/>
      <path class="cls-136" d="M251,98c.33,1.33.96,2.16,2,3-.12,2.64-4.17.21-5,0,.35-.27.84-.6,1-1,.3-.76.05-1.9.99-2.52,1.02-1.13.96.48,1.01.52Z"/>
      <path class="cls-69" d="M226,105c2.27.31,2.89.46,5,1,.88.62.55.95-1,1-2.47-.36-4.3-.8-7-1l3-1Z"/>
      <path class="cls-27" d="M123,70c-.85.32-1.86,1.09-2,2-.68-.65-1.33-1.33-2-2-.87.43-1.17.05-1-1,2.1-1.23,3.48-1.03,5,1Z"/>
      <path class="cls-88" d="M116,73.01c.83.84-2.41,5.75-2.99,4.99-.33-1.82,1.21-6.79,2.99-4.99Z"/>
      <path class="cls-141" d="M202,178c.64,2.18,2.21,1.81,4,2-.7,1.52-2.69.94-4,1-2.09-.38-2.75-1.05-2-2,.11-.02.26-.81,2-1Z"/>
      <path class="cls-11" d="M217,177c-3.68.75-5.55.61-9,1,2.05-2.08,6.18-.62,9-1Z"/>
      <path class="cls-13" d="M231,106c1.79.46,5.98-.2,6,1.99-2.39.08-4.66-.65-7-.99l1-1Z"/>
      <path class="cls-60" d="M256,155c1.34.32,2.63.82,4,1.01-1.11,3.62-3.7.96-4,.99v-2Z"/>
      <path class="cls-41" d="M253,108c-2.12.83-1.57,1.72-2,3-.3-.25-1.67-.95-2-1-.39-.48-.67-1.78-1-2l1-1c1.32.61,2.49,1.13,4,1Z"/>
      <path class="cls-64" d="M176,139l4.5,5,.5-3c.28,1.01,2.95,5.21-.49,4.99-1.67-.83-3.5-5.48-4.51-6.99Z"/>
      <path class="cls-1" d="M171,123l-.78.48.78,2.52c-.36,1.3-1.03.96-2-1-.29-1.38-1.03-2.64,0-4,1.04.77,1.32,1.36,2,2Z"/>
      <path class="cls-11" d="M219,179c-3.26.69-4.39.93-8,1,1.73-2,5.5-.68,8-1Z"/>
      <path class="cls-39" d="M108,72c-.33,1.01-.65,1.99-1,3-1.35,1.33-1.29.81-1-1,.36-2.15.23-2.61,1-5,.94-.39,1.28.61,1,3Z"/>
      <path class="cls-79" d="M175,107c-.46,2.29-.32,2.73-3,3-.29-3.24-.24-3.29,3-3Z"/>
      <path class="cls-101" d="M109,68c-.48,1.18-.58,2.73-1,4l-1-3c.37-1.16.27-1.58,1-3l1,2Z"/>
      <path class="cls-166" d="M250,193c-2.88,1.26-4.71,1.28-8,1-.87-.28-.86-.62,0-1,2.65.15,5.35-.1,8,0Z"/>
      <path class="cls-78" d="M167,203c.91,1.24,1.3,1.97,2,3-1.97-.07-3.24-1.27-4-3,.67-.01,1.33,0,2,0Z"/>
      <path class="cls-194" d="M264,161c-3.26-.15-1.69.14-1,2-.63.1-1.46-.15-2,0l-1-3c2.17-.38,2.51.35,4,1Z"/>
      <path class="cls-101" d="M117,61c4.35,1.39-2.88,2.66-5,3,1.76-1.39,2.59-2.04,5-3Z"/>
      <path class="cls-58" d="M179,136c.22.57.7,1.13,1,2l-.49.97c-3.71-.89-1.95-2.78-2.51-3.97.51.03,1.38.81,2,1Z"/>
      <path class="cls-183" d="M177,131h-2c-1.33.13-1.86-1.02-1-2l1-2c1.11,1.55,1.28,2.65,2,4Z"/>
      <path class="cls-157" d="M216,200c.78-.35,2.86-3.08,3.99-1.99,1.84,1.75-2.59,2.72-2.99,2.99l-1-1Z"/>
      <path class="cls-115" d="M123,301c.13.15,1.88-.42,2.05.52.13,1.73-.38,2.99-2.05,3.48-.12-1.31.08-2.68,0-4Z"/>
      <path class="cls-76" d="M88,67l-1.01-1.99h-.98c.19,2.24-.3,4.83-.01,6.99-2.27-2.7-1.12-8.55,1.99-10,.15,1.64-.17,3.37,0,5Z"/>
      <path class="cls-70" d="M236,101c.98.72.64,1.06-1,1-1.54-.53-4.29-.45-4-1.99,2.15-.83,3.65.65,5,.99Z"/>
      <path class="cls-195" d="M152,229c-.28.87-.62.86-1,0-.78-.74-2.22-1.24-3-2-.4-.31-.39-.65,0-1-1.33-1.41-.77-1.92,1-1,.96,1.35,2.05,2.6,3,4Z"/>
      <path class="cls-28" d="M210,98l3,1c-1.55.22-2.51.13-4,1l-2-1c1.5-.95,1.65-.66,3-1Z"/>
      <path class="cls-143" d="M146,222c2.59-.65,2.06,1.69,3,3l-1,1c-.68.43-2.18-.91-2-2-.06-.33.07-.69,0-1s.07-.68,0-1Z"/>
      <path class="cls-105" d="M225,112v1c-1.58.01-4.44,1.99-6.01.5,1.56-1.02,4.15-1.36,6.01-1.5Z"/>
      <path class="cls-96" d="M239,132c-1.05-.75-1.57-1.83-2-3l1-3c.57,1.86,1.72,3.38,1,6Z"/>
      <path class="cls-123" d="M175,64h1c-1.04,1.81-3.24,1.45-5,2,.91-.68-2.41-1.62,4-2Z"/>
      <path class="cls-15" d="M261,98c-.28.87-.62.86-1,0l1.5-5.01c1.65,1.5.04,3.66-.5,5.01Z"/>
      <path class="cls-52" d="M107,75c-.54,1.54-.45,4.29-1.99,4-.93-2.04.81-3.93.99-5l1,1Z"/>
      <path class="cls-176" d="M92,70c-.23,2.44-1.23,2.3-2,0,0-.33-.02-.67,0-1,.04-.58,1.42-4.19,2-5-.05,2,.07,4.01,0,6Z"/>
      <path class="cls-184" d="M202,122c1.78.57,2.83.8,3.99,2.51-.82,1.77-2.46-.46-2.99-.51l-1-2Z"/>
      <path class="cls-153" d="M267,88c.66,1.69,1.63,2.73.99,5-1.76.39-1.25-2.9-1.99-4l1-1Z"/>
      <path class="cls-142" d="M155,72c-1.03,2.58-3.56,3.16-3,0,.96-.43,1.12-1.63,3,0Z"/>
      <path class="cls-74" d="M100,63c.64.33.64.66,0,1-.14.86-.71,2.45-1,4l-1-2c.37-1.71.01-1.91,1-4,.18.4.95.79,1,1Z"/>
      <path class="cls-85" d="M272,111c1.5.02,1.46,1.62,0,2-3.24-.6-2.04-.86-3-3,.95-.1,2.43,1,3,1Z"/>
      <path class="cls-62" d="M257,183c-.73.17-1.65.71-3,1-1.8.41-2.47.08-2-1,.75-.34,2.06-.67,3-1l2,1Z"/>
      <path class="cls-16" d="M118,124c-.04-1.1.3-2.52-1-3,.4-.86.92-1.95,1.99-2l-.18,4.33-.81.67Z"/>
      <path class="cls-172" d="M191,184c-1.07.44-2.03,2.69-4,1.99.3-1.53,1.97-2.14,3-2.99l1,1Z"/>
      <path class="cls-34" d="M254,184c-1.18.25-2.97,1.92-5,.99-.33-1.23,1.62-1.37,3-1.99l2,1Z"/>
      <path class="cls-5" d="M203,56c-.95,1.61-4.99,1.64-6,0,1.94.05,4.16-.22,6,0Z"/>
      <path class="cls-72" d="M200,179l2,2c-1.23.06-3.01-.25-4,0v-2c.55-.15,1.38.12,2,0Z"/>
      <path class="cls-174" d="M240,192c.27.96,1.15.95,2,1v1c-1.74-.15-5.19-.36-4.99-1.99.99-.05,2,.03,2.99-.01Z"/>
      <path class="cls-99" d="M100,64c.04-.26.06-.75,0-1,.63-1.48,1.65-2.24,3-3-.07,1.97-1.27,3.24-3,4Z"/>
      <path class="cls-61" d="M270,173c.23,3.36-.86,2.11-2,0,.07-.33-.09-.72,0-1,.11-.32.73-.67,1-1,.62.64.75,1.2,1,2Z"/>
      <path class="cls-93" d="M251,169.98c-.14.15-3.27,1.1-4,1.01l3.51-2.98c.86-.13.58,1.88.49,1.98Z"/>
      <path class="cls-71" d="M119,70c-2.04,3.99-5.23,1.48-1-1,.32.35.67.67,1,1Z"/>
      <path class="cls-121" d="M92,70c-.04,1.05.43,3.98-.5,4.01-.85-.64-1.52-3.07-1.5-4.01h2Z"/>
      <path class="cls-7" d="M253,101c-3.26.36-4.02-.11-2-3,.82.63,2.05,2,2,3Z"/>
      <path class="cls-53" d="M261,98c-.22.55.57,1.79-.55,2.06-1.86.44-2.39-.58-3.45-1.06h1l2-1h1Z"/>
      <path class="cls-46" d="M239,102v1c-1.12-.49-2.76-.57-4-1l1-1c1.26.32,2.19.78,3,1Z"/>
      <path class="cls-171" d="M213,104v2c-1.05-.04-3.98.43-4.01-.5.73-.91,2.88-1.38,4.01-1.5Z"/>
      <path class="cls-110" d="M276,112l-1-4c2.02,0,2.26,2.43,1,4Z"/>
      <path class="cls-42" d="M272,111c.18,0,1.08-1.34,1.99-1v3c-.5.09-1.5.09-1.99,0v-2Z"/>
      <path class="cls-190" d="M152,229c.48.71,2.93,3.09,1.49,3.01-2.25.54-2.07-2.61-2.49-3.01h1Z"/>
      <path class="cls-182" d="M72,127.01c.55.55-1.44,5.2-1.99,3.99v-3.99s1.99,0,1.99,0Z"/>
      <path class="cls-103" d="M160.98,241c.15.14,1.1,3.27,1.01,4l-2.98-3.51c-.13-.86,1.88-.58,1.98-.49Z"/>
      <path class="cls-178" d="M227,128l1-5c-.21,1.72-.97,4.57-1,5Z"/>
      <path class="cls-36" d="M84,115l-1-1c3.61-2.08,4.87-2.8,1,1Z"/>
      <path class="cls-114" d="M148,226v1c-.65-.64-2-.99-2.56-2.01-.4-.75.57-.93.56-.99l2,2Z"/>
      <path class="cls-170" d="M275,106.99c-2.46.32-3.91-1.91-1.49-2.99.5-.22.9,2.33,1.49,2.99Z"/>
      <path class="cls-75" d="M178,166c1.05,1.15.49,1.56-1,1-1.24-.84-3.35-.54-3-1.99,1.93-.67,2.8.52,4,.99Z"/>
      <path class="cls-8" d="M256,165c-.94.44-1.85,2.39-3.49,2.01l-.5-.5c.36-.76,1.59-1.05,2-1.5h2Z"/>
      <path class="cls-120" d="M137,68c-1.98,1.63-2.25,1.21-4,2,.25-1.12,1.49-1.44,2-2h2Z"/>
      <path class="cls-32" d="M179,63l1,1c-1.29.15-2.69-.05-4,0-.33.01-.67-.02-1,0,.73-1.62,2.82-.75,4-1Z"/>
      <path class="cls-193" d="M180,167l-1,1c-.81-.08-1.36-.57-2-1l1-1c.84.33,1.26.59,2,1Z"/>
      <path class="cls-134" d="M233,180.99l2.99-2.99c.34,1.82-1.1,3.32-2.99,2.99Z"/>
      <path class="cls-166" d="M247,192c.86-1.66,3.44-.89,5-.99.17,1.11-.95.94-1,.99h-4Z"/>
      <path class="cls-177" d="M265,180c-.27.94-1.15,1-2,1-1.1,0-2.52.28-3-1,1.06-.14,4.11-.22,5,0Z"/>
      <path class="cls-35" d="M178.01,293.01c.15.17-.83,3.64-1.03,4.48-1.16,4.74-3.92-2.52-3.52-3.5.74-1.81,3.82-1.82,4.55-.98Z"/>
      <path class="cls-54" d="M253,112c1.29-.16,2.29.17,3,1,.01.78-1.59,2.54-.99,4l2.98-2c.93,5.26-2.7,2.38-5.99,1,.62,2.4,2.63,3.29,3,5.99-3.42.76-1.03-3.1-4-3.99-.76-.23-2.07.16-2.99,0-.79-2.08,1.68-2.39,1.99-2.99,1.04-1.71,1.5-.89,2,1-1.49-1.01-1.26-3.02,0-4h1Z"/>
      <path class="cls-45" d="M256,113c-2.32.47-3.36,2.15-3-1l2-2c.28.95.98,1.75,1,3Z"/>
      <path class="cls-59" d="M171,126c.48.45,2.87,2.83,3,3,.39.53.65,1.36,1,2,.63,1.15,1.42,2.79,2,4-.24-.01-.91.88-1.51.78-.9-.14-2.92-6.81-3.78-7.56-1.75-1.52-1.62,1.99-2.71-3.22.56.39,1.57.59,2,1Z"/>
      <path class="cls-45" d="M252,112c.28,1.11-.28,2.9,0,4-.68-.29-1.32-.7-2-1,.13-.25-.12-.71,0-1,.55-1.32.63-1.91,1-3,.37.31.86.46,1,1Z"/>
      <path class="cls-22" d="M233,131c-.11,1.06.36,2.53-1,3-.57-2.02-2.5-3.37,1-3Z"/>
      <path class="cls-128" d="M262,172c-.73-3.3,2.63-1.73,5-1.99l-1,1.99c-1.31,0-2.71-.12-4,0Z"/>
    </g>
  </g>
</svg>