<?xml version="1.0" encoding="UTF-8"?>
<svg id="Layer_1" data-name="Layer 1" xmlns="http://www.w3.org/2000/svg" xmlns:xlink="http://www.w3.org/1999/xlink" viewBox="0 0 626 162">
  <defs>
    <style>
      .cls-1 {
        fill: none;
      }

      .cls-2 {
        fill: url(#radial-gradient-7);
      }

      .cls-2, .cls-3, .cls-4, .cls-5, .cls-6, .cls-7, .cls-8, .cls-9, .cls-10, .cls-11, .cls-12, .cls-13, .cls-14, .cls-15, .cls-16, .cls-17, .cls-18, .cls-19 {
        isolation: isolate;
      }

      .cls-2, .cls-3, .cls-4, .cls-5, .cls-6, .cls-7, .cls-8, .cls-9, .cls-10, .cls-11, .cls-12, .cls-13, .cls-14, .cls-15, .cls-16, .cls-17, .cls-20, .cls-19, .cls-21, .cls-22, .cls-23 {
        stroke: #000;
      }

      .cls-2, .cls-3, .cls-4, .cls-5, .cls-6, .cls-7, .cls-8, .cls-9, .cls-12, .cls-13, .cls-14, .cls-15, .cls-16, .cls-17 {
        mix-blend-mode: multiply;
      }

      .cls-3 {
        fill: url(#radial-gradient-4);
      }

      .cls-4 {
        fill: url(#radial-gradient-5);
      }

      .cls-5 {
        fill: url(#radial-gradient-6);
      }

      .cls-6 {
        fill: url(#radial-gradient-8);
      }

      .cls-7 {
        fill: url(#radial-gradient-9);
      }

      .cls-8 {
        fill: url(#radial-gradient-2);
      }

      .cls-9 {
        fill: url(#radial-gradient-3);
      }

      .cls-10 {
        fill: url(#radial-gradient-12);
      }

      .cls-10, .cls-11, .cls-19 {
        mix-blend-mode: screen;
      }

      .cls-11 {
        fill: url(#radial-gradient-10);
      }

      .cls-12 {
        fill: url(#radial-gradient-16);
      }

      .cls-13 {
        fill: url(#radial-gradient-13);
      }

      .cls-14 {
        fill: url(#radial-gradient-14);
      }

      .cls-15 {
        fill: url(#radial-gradient-17);
      }

      .cls-16 {
        fill: url(#radial-gradient-15);
      }

      .cls-17 {
        fill: url(#radial-gradient-11);
      }

      .cls-24 {
        fill: #c9a962;
        font-family: tattoo, tattoo;
        font-size: 83px;
      }

      .cls-20 {
        fill: #fff;
      }

      .cls-25 {
        clip-path: url(#clippath-11);
      }

      .cls-26 {
        clip-path: url(#clippath-10);
      }

      .cls-27 {
        clip-path: url(#clippath-13);
      }

      .cls-28 {
        clip-path: url(#clippath-12);
      }

      .cls-19 {
        fill: url(#radial-gradient);
      }

      .cls-29 {
        clip-path: url(#clippath-1);
      }

      .cls-30 {
        clip-path: url(#clippath-3);
      }

      .cls-31 {
        clip-path: url(#clippath-4);
      }

      .cls-32 {
        clip-path: url(#clippath-2);
      }

      .cls-33 {
        clip-path: url(#clippath-7);
      }

      .cls-34 {
        clip-path: url(#clippath-6);
      }

      .cls-35 {
        clip-path: url(#clippath-9);
      }

      .cls-36 {
        clip-path: url(#clippath-8);
      }

      .cls-37 {
        clip-path: url(#clippath-5);
      }

      .cls-21 {
        fill: #fbac18;
      }

      .cls-22 {
        fill: #010101;
      }

      .cls-38 {
        clip-path: url(#clippath);
      }

      .cls-23 {
        fill: #f04b4c;
      }
    </style>
    <clipPath id="clippath">
      <path class="cls-1" d="M92.05,26.93c.29-.01.57-.02.85-.01,3.62.05,7.21,1.8,9.5,5.13,2.81,4.1,2,7.03,1.15,10.38-.6,2.38-1.22,4.97-.59,8.33,1.53,8.12-9.79,10.34-10.47,17.01-.97-1.17-1.99-2.32-3.07-3.46.54-2.65,1.73-6.91,7.15-17.66.13-.28.28-.56.43-.85,6.5-12.77-4.03-19.71-11.37-16.45,1.69-1.33,3.65-2.12,5.66-2.36.26-.04.53-.07.78-.08v.02Z"/>
    </clipPath>
    <radialGradient id="radial-gradient" cx="-292.58" cy="440.15" fx="-292.58" fy="440.15" r="4.67" gradientTransform="translate(-3475.59 240.33) rotate(109.73) scale(4.77 -7.5)" gradientUnits="userSpaceOnUse">
      <stop offset=".14" stop-color="#fff"/>
      <stop offset=".21" stop-color="#f2f2f2"/>
      <stop offset=".26" stop-color="#dcdbdb"/>
      <stop offset=".33" stop-color="#adacac"/>
      <stop offset=".43" stop-color="#707070"/>
      <stop offset=".52" stop-color="#404040"/>
      <stop offset=".6" stop-color="#1d1d1d"/>
      <stop offset=".67" stop-color="#080808"/>
      <stop offset=".71" stop-color="#010101"/>
    </radialGradient>
    <clipPath id="clippath-1">
      <path class="cls-1" d="M140.53,68.37c.84,6.29,4.61,9.78,2.93,20.67-1.68,10.9-16.87,15.01-24.85,5.45-.62-1.47-1.33-2.88-2.11-4.23,2.43-3.72,4.09-8.34,4.61-14.08.87-9.47-2.26-15.92-6.11-20.7,8-2.94,13.2-6.57,14.66-11.97,11.62-.28,10.03,18.58,10.88,24.86Z"/>
    </clipPath>
    <radialGradient id="radial-gradient-2" cx="-75.98" cy="388.06" fx="-75.98" fy="388.06" r="18.15" gradientTransform="translate(389.07 870.26) rotate(-9.72) scale(1.8 -2.17)" gradientUnits="userSpaceOnUse">
      <stop offset=".28" stop-color="#520e2b"/>
      <stop offset=".39" stop-color="#801540"/>
      <stop offset=".64" stop-color="#d1a4ba"/>
      <stop offset=".77" stop-color="#eddae2"/>
      <stop offset=".86" stop-color="#fff"/>
    </radialGradient>
    <clipPath id="clippath-2">
      <path class="cls-1" d="M94.28,70.1c.58.82,1.12,1.65,1.61,2.49-11.26-4.33-24.36-3.82-35.64,1.91-.28-8.35,3.2-14.34,5.44-19.03.29-.61.56-1.19.8-1.76.72-1.69,1.15-3.22,1.01-4.63,2,2.72,4.37,4.41,5.57,9.24,2.37,9.45,13.36,3.61,21.19,11.77q5.22,5.44.02.02Z"/>
    </clipPath>
    <radialGradient id="radial-gradient-3" cx="-375.94" cy="471.72" fx="-375.94" fy="471.72" r="7.05" gradientTransform="translate(-781.8 -1772.41) rotate(-143.98) scale(4.72 -2.07)" xlink:href="#radial-gradient-2"/>
    <clipPath id="clippath-3">
      <path class="cls-1" d="M117.34,29.53c6.42,8.61,4.68,21.52-3.66,24.39-4.53-5.07-9.55-8.22-10.13-11.49.85-3.35,1.66-6.28-1.15-10.38-2.29-3.33-5.88-5.07-9.5-5.13,5.14-7,14.12-6.31,20.59-1.31,1.43,1.11,2.74,2.43,3.86,3.92h-.01Z"/>
    </clipPath>
    <radialGradient id="radial-gradient-4" cx="132.15" cy="261.99" fx="132.15" fy="261.99" r="14.04" gradientTransform="translate(0 163.55) scale(1 -1)" xlink:href="#radial-gradient-2"/>
    <clipPath id="clippath-4">
      <path class="cls-1" d="M114.99,55.47c3.85,4.78,6.98,11.22,6.11,20.7-.52,5.73-2.18,10.37-4.61,14.08-4.82-8.48-12.19-14.42-20.62-17.66-.49-.84-1.03-1.68-1.61-2.49-.39-.54-.39-.55-.02-.02-.55-.78-1.14-1.55-1.76-2.3.68-6.67,12.01-8.89,10.47-17.01-.63-3.36-.01-5.96.59-8.33.58,3.28,5.58,6.41,10.13,11.49.45.49.88,1.02,1.32,1.56h0Z"/>
    </clipPath>
    <radialGradient id="radial-gradient-5" cx="-36.29" cy="502.03" fx="-36.29" fy="502.03" r="11.91" gradientTransform="translate(-480.77 1686.8) rotate(21.63) scale(1.8 -3.44)" xlink:href="#radial-gradient-2"/>
    <radialGradient id="radial-gradient-6" cx="-291.34" cy="639.77" fx="-291.34" fy="639.77" r="7.05" gradientTransform="translate(-2082.47 -547.02) rotate(119.32) scale(1.8 -3.44)" xlink:href="#radial-gradient-2"/>
    <clipPath id="clippath-5">
      <path class="cls-1" d="M82.89,31.2c.82-.8,1.73-1.42,2.72-1.85,7.36-3.25,17.87,3.67,11.37,16.45-.15.29-.29.57-.43.85,0,0-4-4.78-5.42-8.99-.19-.75-.6-1.48-1.28-2.19-3.82-4.01-15.82-1.95-15.33,14.95-1.31-1.3-2.44-2.53-3.3-3.73-4.44-6.09-1.01-16.1,7.8-16.1h.18c.65.02,1.33.09,2.02.19.54.09,1.08.21,1.65.38v.02Z"/>
    </clipPath>
    <radialGradient id="radial-gradient-7" cx="127.73" cy="264.31" fx="127.73" fy="264.31" r="8.37" gradientTransform="translate(0 163.55) scale(1 -1)" xlink:href="#radial-gradient-2"/>
    <radialGradient id="radial-gradient-8" cx="113.41" cy="265.1" fx="113.41" fy="265.1" r="8.37" gradientTransform="translate(0 163.55) scale(1 -1)" xlink:href="#radial-gradient-2"/>
    <clipPath id="clippath-6">
      <path class="cls-1" d="M102.39,84.99c3.11,4.16,8.82,2.3,13.47,6.21h-.01c-.35.52-.74,1.01-1.13,1.47-4.37,5.26-10.44,8.29-16.67,9.79-8.31,1.99-21.2.67-29.63-7.97-.57-.57-1.11-1.18-1.62-1.83-2.05-2.52-3.76-5.56-4.94-9.2-.62-1.94-1.06-3.8-1.32-5.54,4.9-.32,9.44-.71,13.97-2.84,6.5-3.07,6.77,3.35,13.76,4.47,6.98,1.12,10.34.42,14.11,5.45Z"/>
    </clipPath>
    <radialGradient id="radial-gradient-9" cx="-284.56" cy="581.9" fx="-284.56" fy="581.9" r="7.04" gradientTransform="translate(-3172.91 -924.9) rotate(119.32) scale(2.55 -5.73)" xlink:href="#radial-gradient-2"/>
    <clipPath id="clippath-7">
      <path class="cls-1" d="M92.48,67.77c.62.76,1.22,1.53,1.76,2.3-7.83-8.16-18.82-2.31-21.19-11.77-1.2-4.82-3.58-6.52-5.57-9.24-.86-1.18-1.65-2.56-2.25-4.47-1.83-5.89,3.55-14.32,13.81-13.98-8.81,0-12.23,10-7.8,16.1.86,1.18,1.99,2.43,3.3,3.73,1.59,1.59,3.46,3.28,5.43,5.04,3.09,2.75,6.44,5.7,9.44,8.84,1.08,1.13,2.12,2.28,3.07,3.46h0Z"/>
    </clipPath>
    <radialGradient id="radial-gradient-10" cx="-234.85" cy="409.45" fx="-234.85" fy="409.45" r="4.12" gradientTransform="translate(-1884.79 2798.69) rotate(60.24) scale(6.01 -7.5)" xlink:href="#radial-gradient"/>
    <clipPath id="clippath-8">
      <path class="cls-1" d="M69.13,25.09c7.15-5.16,17.59-7.71,22.12,1.91-2,.25-3.96,1.03-5.66,2.36-.99.43-1.9,1.04-2.72,1.85-.57-.17-1.12-.29-1.65-.38-.71-.12-1.39-.19-2.02-.19h-.18c-10.26-.34-15.64,8.09-13.81,13.98.6,1.91,1.4,3.29,2.25,4.47.15,1.41-.29,2.94-1.01,4.63-11.64-8.3-6.64-20.45.29-26.7.74-.66,1.54-1.31,2.37-1.91h.01Z"/>
    </clipPath>
    <radialGradient id="radial-gradient-11" cx="-98.44" cy="615.42" fx="-98.44" fy="615.42" r="10.8" gradientTransform="translate(-1065.78 1068.6) rotate(55.38) scale(2.02 -2.47)" xlink:href="#radial-gradient-2"/>
    <clipPath id="clippath-9">
      <path class="cls-1" d="M116.49,90.25c.77,1.35,1.47,2.76,2.11,4.23-.85-1.42-1.76-2.48-2.74-3.3-4.65-3.9-10.35-2.04-13.47-6.21-3.78-5.03-7.13-4.33-14.11-5.45-6.98-1.12-7.26-7.54-13.76-4.47-4.52,2.14-9.08,2.51-13.97,2.84-2.14.13-4.34.26-6.64.52,2.02-1.5,4.13-2.8,6.33-3.92,11.29-5.74,24.39-6.24,35.64-1.91,8.43,3.23,15.8,9.17,20.62,17.66Z"/>
    </clipPath>
    <radialGradient id="radial-gradient-12" cx="-272.42" cy="439.78" fx="-272.42" fy="439.78" r="4.67" gradientTransform="translate(-3288.89 -277.8) rotate(109.73) scale(2.98 -7.5)" xlink:href="#radial-gradient"/>
    <clipPath id="clippath-10">
      <path class="cls-1" d="M91.14,37.68c.93,3.62-3.46,7.18-10.41,4.7,0,0-1.63,5.02-.77,13.09-1.98-1.75-3.84-3.45-5.43-5.03-.48-16.9,11.51-18.96,15.33-14.95.67.71,1.08,1.44,1.28,2.19h0Z"/>
    </clipPath>
    <radialGradient id="radial-gradient-13" cx="-444.28" cy="547.55" fx="-444.28" fy="547.55" r="4.93" gradientTransform="translate(-1115.97 -2453.78) rotate(-175.95) scale(3.09 -4.4)" gradientUnits="userSpaceOnUse">
      <stop offset="0" stop-color="#e65325"/>
      <stop offset=".1" stop-color="#e65624"/>
      <stop offset=".18" stop-color="#e85f24"/>
      <stop offset=".25" stop-color="#eb7023"/>
      <stop offset=".32" stop-color="#f08722"/>
      <stop offset=".38" stop-color="#f6a521"/>
      <stop offset=".44" stop-color="#fdc91f"/>
      <stop offset=".45" stop-color="#ffcf1f"/>
      <stop offset=".54" stop-color="#ffdf6c"/>
      <stop offset=".63" stop-color="#ffedab"/>
      <stop offset=".7" stop-color="#fff6d8"/>
      <stop offset=".76" stop-color="#fffcf4"/>
      <stop offset=".79" stop-color="#fff"/>
    </radialGradient>
    <clipPath id="clippath-11">
      <path class="cls-1" d="M91.14,37.68c1.43,4.2,5.42,8.99,5.42,8.99-5.42,10.75-6.62,15.01-7.15,17.66-3-3.14-6.35-6.09-9.44-8.84-.86-8.08.77-13.1.77-13.1,6.95,2.48,11.34-1.08,10.41-4.7h0Z"/>
    </clipPath>
    <radialGradient id="radial-gradient-14" cx="-425.77" cy="534.62" fx="-425.77" fy="534.62" r="7.05" gradientTransform="translate(-1091.89 -3232.79) rotate(-177.46) scale(3.08 -6.04)" xlink:href="#radial-gradient-2"/>
    <clipPath id="clippath-12">
      <path class="cls-1" d="M60.24,74.5c-2.19,1.12-4.31,2.42-6.33,3.92,2.3-.26,4.5-.38,6.64-.52.26,1.74.7,3.6,1.32,5.54,1.18,3.64,2.88,6.68,4.94,9.2-3.32,3.21-5.66,7.21-6.79,11.22-12.68,1.92-20.08-13.3-19.65-20.71.5-9.03,3.25-7.73.7-16.83-3.49-12.43,6.42-24.36,15.59-19,2.15,2.54,5.1,5.25,9.03,8.13-2.24,4.69-5.72,10.69-5.44,19.03v.02Z"/>
    </clipPath>
    <radialGradient id="radial-gradient-15" cx="-69.73" cy="383.19" fx="-69.73" fy="383.19" r="18.14" gradientTransform="translate(310.73 883.65) rotate(-9.72) scale(1.53 -2.17)" xlink:href="#radial-gradient-2"/>
    <radialGradient id="radial-gradient-16" cx="-64.32" cy="388.41" fx="-64.32" fy="388.41" r="18.14" gradientTransform="translate(310.73 883.65) rotate(-9.72) scale(1.53 -2.17)" xlink:href="#radial-gradient-2"/>
    <clipPath id="clippath-13">
      <path class="cls-1" d="M114.72,92.66c2.23,5.55,6.72,8.87,11.7,9.97,0,0,1.78,4.39-6.31,10.26-8.1,5.86-16.23,3.81-21.08,3.94-4.85.15-16.49,5.58-28.21,1.82-11.72-3.77-9.71-17.77-2.38-24.17,8.43,8.63,21.32,9.96,29.63,7.97,6.23-1.49,12.3-4.52,16.67-9.79h-.02Z"/>
    </clipPath>
    <radialGradient id="radial-gradient-17" cx="-79.78" cy="648.15" fx="-79.78" fy="648.15" r="14.9" gradientTransform="translate(-1542.78 467.45) rotate(81.45) scale(1.53 -2.58)" xlink:href="#radial-gradient-2"/>
  </defs>
  <g class="cls-18">
    <g id="Layer_1-2" data-name="Layer 1">
      <g>
        <g>
          <g>
            <g>
              <path class="cls-21" d="M92.05,26.93c.29-.01.57-.02.85-.01,3.62.05,7.21,1.8,9.5,5.13,2.81,4.1,2,7.03,1.15,10.38-.6,2.38-1.22,4.97-.59,8.33,1.53,8.12-9.79,10.34-10.47,17.01-.97-1.17-1.99-2.32-3.07-3.46.54-2.65,1.73-6.91,7.15-17.66.13-.28.28-.56.43-.85,6.5-12.77-4.03-19.71-11.37-16.45,1.69-1.33,3.65-2.12,5.66-2.36.26-.04.53-.07.78-.08v.02Z"/>
              <g class="cls-38">
                <path class="cls-19" d="M95.01,62.22c-18.22-6.53-29.63-21.24-25.48-32.83,4.17-11.6,22.31-15.7,40.54-9.16,18.22,6.54,29.63,21.23,25.46,32.82-4.15,11.59-22.3,15.71-40.51,9.16h-.01Z"/>
              </g>
            </g>
            <g>
              <path class="cls-23" d="M140.53,68.37c.84,6.29,4.61,9.78,2.93,20.67-1.68,10.9-16.87,15.01-24.85,5.45-.62-1.47-1.33-2.88-2.11-4.23,2.43-3.72,4.09-8.34,4.61-14.08.87-9.47-2.26-15.92-6.11-20.7,8-2.94,13.2-6.57,14.66-11.97,11.62-.28,10.03,18.58,10.88,24.86Z"/>
              <g class="cls-29">
                <path class="cls-8" d="M144.3,58.07c3.66,21.4-7.76,41.22-25.53,44.26-17.77,3.04-35.15-11.84-38.81-33.24-3.66-21.4,7.77-41.22,25.54-44.26,17.77-3.04,35.14,11.84,38.81,33.24h-.01Z"/>
              </g>
            </g>
            <path class="cls-20" d="M74.53,17.66c-2.7,3.73-5.29,5.47-7.92,6.56-2.63,1.1-5.27,1.55-8.09,2.68-5.03,2.05-9.57,8.02-4.61,16.59.71,1.23,1.61,2.51,2.74,3.85,2.15,2.54,5.1,5.25,9.03,8.13.29-.61.56-1.19.8-1.76-11.64-8.3-6.64-20.45.29-26.7.74-.66,1.54-1.31,2.37-1.91,7.15-5.16,17.59-7.71,22.12,1.91.26-.04.53-.07.78-.08.05-1.85.35-3.52.85-5.01h0c-2.24-10.26-12.99-11.71-18.37-4.24h.01Z"/>
            <g>
              <path class="cls-23" d="M94.28,70.1c.58.82,1.12,1.65,1.61,2.49-11.26-4.33-24.36-3.82-35.64,1.91-.28-8.35,3.2-14.34,5.44-19.03.29-.61.56-1.19.8-1.76.72-1.69,1.15-3.22,1.01-4.63,2,2.72,4.37,4.41,5.57,9.24,2.37,9.45,13.36,3.61,21.19,11.77q5.22,5.44.02.02Z"/>
              <g class="cls-32">
                <path class="cls-9" d="M52.68,41.59c4.74-6.53,20.63-3.07,35.47,7.73,14.84,10.79,23.04,24.83,18.3,31.37-4.75,6.53-20.63,3.06-35.48-7.73-14.85-10.79-23.04-24.83-18.29-31.36h0Z"/>
              </g>
            </g>
            <path class="cls-20" d="M67.76,58.42c.27-.55.53-1.08.78-1.59.74-1.53,1.23-3.15,1.58-4.53-.86-1.1-1.78-2.08-2.64-3.23.15,1.41-.29,2.94-1.01,4.63-.24.57-.5,1.15-.8,1.76-2.24,4.69-5.72,10.69-5.44,19.03,1-.51,2.01-.95,3.03-1.38.36-8.24,3.01-11.68,4.49-14.69Z"/>
            <g>
              <path class="cls-23" d="M117.34,29.53c6.42,8.61,4.68,21.52-3.66,24.39-4.53-5.07-9.55-8.22-10.13-11.49.85-3.35,1.66-6.28-1.15-10.38-2.29-3.33-5.88-5.07-9.5-5.13h0c5.14-7,14.12-6.31,20.59-1.31,1.43,1.11,2.74,2.43,3.86,3.92h-.01Z"/>
              <g class="cls-30">
                <path class="cls-3" d="M129.38,45.74c2.84,16.56-6.01,31.9-19.76,34.26s-27.2-9.16-30.04-25.73c-2.83-16.56,6.01-31.9,19.76-34.26,13.75-2.36,27.2,9.16,30.03,25.73h.01Z"/>
              </g>
            </g>
            <g>
              <path class="cls-23" d="M114.99,55.47c3.85,4.78,6.98,11.22,6.11,20.7-.52,5.73-2.18,10.37-4.61,14.08-4.82-8.48-12.19-14.42-20.62-17.66-.49-.84-1.03-1.68-1.61-2.49-.39-.54-.39-.55-.02-.02-.55-.78-1.14-1.55-1.76-2.3.68-6.67,12.01-8.89,10.47-17.01-.63-3.36-.01-5.96.59-8.33.58,3.28,5.58,6.41,10.13,11.49.45.49.88,1.02,1.32,1.56h0Z"/>
              <g class="cls-31">
                <g>
                  <path class="cls-4" d="M114.9,65.51c-8.32,21-23.99,34.49-34.99,30.14-11-4.37-13.17-24.93-4.84-45.92,8.32-21,23.99-34.49,34.99-30.14,11,4.36,13.17,24.93,4.84,45.92Z"/>
                  <path class="cls-5" d="M86.89,84.45c-11.66-6.55-18.34-16.81-14.91-22.92,3.43-6.1,15.67-5.75,27.33.8s18.34,16.81,14.9,22.92c-3.42,6.11-15.67,5.75-27.32-.8Z"/>
                </g>
              </g>
            </g>
            <path class="cls-20" d="M114.99,55.47c-.44-.54-.87-1.06-1.32-1.56-4.53-5.07-9.55-8.22-10.13-11.49-.38,1.53-.78,3.12-.84,4.97,2.22,3.08,5.42,5.24,8.61,8.63.44.47.82.95,1.22,1.44,4.35,5.4,6.07,11.25,5.42,18.41-.26,2.94-.86,5.63-1.8,8.08-.5,1.15-1.08,2.15-1.73,3.02.74,1.05,1.43,2.14,2.08,3.27,2.43-3.72,4.09-8.34,4.61-14.08.87-9.47-2.26-15.92-6.11-20.7h-.01Z"/>
            <g>
              <path class="cls-23" d="M82.89,31.2c.82-.8,1.73-1.42,2.72-1.85,7.36-3.25,17.87,3.67,11.37,16.45-.15.29-.29.57-.43.85,0,0-4-4.78-5.42-8.99-.19-.75-.6-1.48-1.28-2.19-3.82-4.01-15.82-1.95-15.33,14.95-1.31-1.3-2.44-2.53-3.3-3.73-4.44-6.09-1.01-16.1,7.8-16.1h.18c.65.02,1.33.09,2.02.19.54.09,1.08.21,1.65.38v.02Z"/>
              <g class="cls-37">
                <g>
                  <path class="cls-2" d="M110.65,43.85c1.69,9.88-3.58,19.02-11.79,20.43-8.21,1.4-16.22-5.47-17.92-15.35-1.69-9.88,3.59-19.03,11.79-20.43,8.2-1.4,16.22,5.47,17.91,15.35h.01Z"/>
                  <path class="cls-6" d="M84.97,46.53c1.69,9.88-3.58,19.02-11.79,20.43-8.21,1.4-16.23-5.47-17.92-15.35-1.69-9.88,3.59-19.03,11.79-20.43,8.2-1.41,16.22,5.47,17.91,15.35h.01Z"/>
                </g>
              </g>
            </g>
            <path class="cls-20" d="M129.79,37.2c-1.68-9.08-9.51-9.48-13.94-11.87-.13-.08-.27-.16-.4-.24-3.97-2.5-3.61-8.09-9.39-10.79-4.89-2.28-10.95.84-13.17,7.59h0c-.49,1.5-.8,3.19-.85,5.03.29-.01.57-.02.85-.01h0c5.14-7,14.12-6.31,20.59-1.31,1.43,1.11,2.74,2.43,3.86,3.92,6.42,8.61,4.68,21.52-3.66,24.39.45.49.88,1.02,1.32,1.56,8-2.94,13.2-6.57,14.66-11.97.31-1.14.46-2.37.42-3.67-.02-.83-.11-1.71-.28-2.62h0Z"/>
            <g>
              <path class="cls-23" d="M102.39,84.99c3.11,4.16,8.82,2.3,13.47,6.21h-.01c-.35.52-.74,1.01-1.13,1.47-4.37,5.26-10.44,8.29-16.67,9.79-8.31,1.99-21.2.67-29.63-7.97-.57-.57-1.11-1.18-1.62-1.83-2.05-2.52-3.76-5.56-4.94-9.2-.62-1.94-1.06-3.8-1.32-5.54,4.9-.32,9.44-.71,13.97-2.84,6.5-3.07,6.77,3.35,13.76,4.47,6.98,1.12,10.34.42,14.11,5.45Z"/>
              <g class="cls-34">
                <path class="cls-7" d="M80.84,90.7c-19.46-10.93-31.3-26.79-26.44-35.44,4.86-8.64,24.56-6.8,44.02,4.13,19.46,10.93,31.3,26.79,26.44,35.44-4.86,8.64-24.56,6.8-44.02-4.13Z"/>
              </g>
            </g>
            <path class="cls-20" d="M110.98,92.08c-3.42,3.46-8.1,5.96-13.67,7.3-1.97.48-4.22.73-6.51.73-7.94,0-15.27-2.85-20.11-7.82-.47-.47-.92-.99-1.42-1.6-1.91-2.35-3.38-5.11-4.39-8.2-.19-.57-.35-1.13-.5-1.68-.25-1.14-.43-2.19-.53-3.13-1.09.1-2.19.18-3.31.26.26,1.74.7,3.6,1.32,5.54,1.18,3.64,2.88,6.68,4.94,9.2.52.63,1.05,1.26,1.62,1.83,8.43,8.63,21.32,9.96,29.63,7.97,6.23-1.49,12.3-4.52,16.67-9.79.39-.47.77-.97,1.13-1.46h.01c-.86-.73-1.75-1.26-2.66-1.66-.77,1.03-1.54,1.94-2.22,2.53h0Z"/>
            <g>
              <path class="cls-21" d="M92.48,67.77c.62.76,1.22,1.53,1.76,2.3-7.83-8.16-18.82-2.31-21.19-11.77-1.2-4.82-3.58-6.52-5.57-9.24-.86-1.18-1.65-2.56-2.25-4.47-1.83-5.89,3.55-14.32,13.81-13.98-8.81,0-12.23,10-7.8,16.1.86,1.18,1.99,2.43,3.3,3.73,1.59,1.59,3.46,3.28,5.43,5.04,3.09,2.75,6.44,5.7,9.44,8.84,1.08,1.13,2.12,2.28,3.07,3.46h0Z"/>
              <g class="cls-33">
                <path class="cls-11" d="M92.51,70.52c-14.8,8.46-32.29,5.71-39.07-6.13-6.77-11.86-.26-28.32,14.54-36.79,14.8-8.46,32.28-5.72,39.06,6.14,6.78,11.84.28,28.32-14.52,36.78h-.01Z"/>
              </g>
            </g>
            <g>
              <path class="cls-23" d="M69.13,25.09c7.15-5.16,17.59-7.71,22.12,1.91-2,.25-3.96,1.03-5.66,2.36-.99.43-1.9,1.04-2.72,1.85-.57-.17-1.12-.29-1.65-.38-.71-.12-1.39-.19-2.02-.19h-.18c-10.26-.34-15.64,8.09-13.81,13.98.6,1.91,1.4,3.29,2.25,4.47.15,1.41-.29,2.94-1.01,4.63-11.64-8.3-6.64-20.45.29-26.7.74-.66,1.54-1.31,2.37-1.91h.01Z"/>
              <g class="cls-36">
                <path class="cls-17" d="M85.04,59.22c-12.15,8.38-27.56,7.13-34.42-2.8-6.86-9.94-2.57-24.79,9.57-33.18,12.15-8.38,27.56-7.13,34.42,2.81,6.86,9.94,2.57,24.79-9.58,33.18h.01Z"/>
              </g>
            </g>
            <g>
              <path class="cls-21" d="M116.49,90.25c.77,1.35,1.47,2.76,2.11,4.23-.85-1.42-1.76-2.48-2.74-3.3-4.65-3.9-10.35-2.04-13.47-6.21-3.78-5.03-7.13-4.33-14.11-5.45-6.98-1.12-7.26-7.54-13.76-4.47-4.52,2.14-9.08,2.51-13.97,2.84-2.14.13-4.34.26-6.64.52,2.02-1.5,4.13-2.8,6.33-3.92,11.29-5.74,24.39-6.24,35.64-1.91,8.43,3.23,15.8,9.17,20.62,17.66Z"/>
              <g class="cls-35">
                <path class="cls-10" d="M84.93,84.8c-18.22-6.54-30.89-17.71-28.3-24.96,2.6-7.24,19.49-7.82,37.71-1.29,18.22,6.54,30.89,17.7,28.28,24.96-2.59,7.24-19.47,7.83-37.69,1.3h0Z"/>
              </g>
            </g>
            <path class="cls-20" d="M142.89,97.57c-3.47,3.77-8.32,5.59-13.11,5.48-1.14-.02-2.26-.16-3.37-.42-4.96-1.1-9.45-4.41-11.7-9.97.39-.47.77-.97,1.13-1.46h.01c.98.81,1.89,1.87,2.74,3.29,7.98,9.57,23.18,5.46,24.85-5.45,1.68-10.9-2.09-14.38-2.93-20.67-.84-6.29.75-25.14-10.88-24.86.31-1.14.46-2.37.42-3.67,11.61-1.89,11.91,16.43,18.98,21.28,4.09,2.8,2.38,4.75,0,10.06-2.37,5.31,1.82,17.74-6.14,26.41h-.01Z"/>
            <g>
              <path class="cls-20" d="M91.14,37.68c.93,3.62-3.46,7.18-10.41,4.7,0,0-1.63,5.02-.77,13.09h0c-1.98-1.75-3.84-3.45-5.43-5.03-.48-16.9,11.51-18.96,15.33-14.95.67.71,1.08,1.44,1.28,2.19h0Z"/>
              <g class="cls-26">
                <path class="cls-13" d="M68.29,45.33c.85-11.93,8.33-21.14,16.71-20.54,8.37.6,14.48,10.75,13.63,22.7-.84,11.93-8.31,21.13-16.7,20.53-8.37-.59-14.49-10.74-13.64-22.69Z"/>
              </g>
            </g>
            <g>
              <path class="cls-23" d="M91.14,37.68c1.43,4.2,5.42,8.99,5.42,8.99-5.42,10.75-6.62,15.01-7.15,17.66-3-3.14-6.35-6.09-9.44-8.84h0c-.86-8.08.77-13.1.77-13.1,6.95,2.48,11.34-1.08,10.41-4.7h0Z"/>
              <g class="cls-25">
                <path class="cls-14" d="M53.73,50.31c1.04-23.49,11.58-42.11,23.55-41.57,11.97.53,20.82,20.01,19.78,43.49-1.04,23.48-11.58,42.11-23.55,41.57-11.97-.53-20.82-20.01-19.78-43.49Z"/>
              </g>
            </g>
            <path class="cls-20" d="M89.62,41.83c1.4,2.29,3.55,5.71,5.39,7.98.48-.99.99-2.02,1.56-3.15,0,0-4-4.78-5.42-8.99.4,1.56-.19,3.09-1.52,4.15h-.01Z"/>
            <path class="cls-20" d="M40.37,83.17c-.43,7.41,6.97,22.63,19.65,20.71-.25.86-.44,1.72-.56,2.57-11.48,2.88-19.82-7.97-22.04-17-2.38-9.63-6.56-15.36-7.54-18.15-.99-2.79,1.95-4.34,5.86-11.47,3.91-7.12,6-19.83,18.16-16.34.71,1.23,1.61,2.51,2.74,3.85-9.16-5.35-19.07,6.57-15.59,19,2.56,9.1-.19,7.8-.7,16.83h.01Z"/>
            <g>
              <path class="cls-23" d="M60.24,74.5c-2.19,1.12-4.31,2.42-6.33,3.92,2.3-.26,4.5-.38,6.64-.52.26,1.74.7,3.6,1.32,5.54,1.18,3.64,2.88,6.68,4.94,9.2-3.32,3.21-5.66,7.21-6.79,11.22-12.68,1.92-20.08-13.3-19.65-20.71.5-9.03,3.25-7.73.7-16.83-3.49-12.43,6.42-24.36,15.59-19,2.15,2.54,5.1,5.25,9.03,8.13-2.24,4.69-5.72,10.69-5.44,19.03v.02Z"/>
              <g class="cls-28">
                <g>
                  <path class="cls-16" d="M92.92,77.57c3.66,21.4-5.63,40.86-20.78,43.45s-30.39-12.66-34.06-34.06c-3.66-21.4,5.63-40.86,20.78-43.44,15.14-2.59,30.39,12.65,34.05,34.06h.01Z"/>
                  <path class="cls-12" d="M99.2,65.02c3.66,21.4-5.63,40.86-20.78,43.45-15.14,2.59-30.39-12.65-34.06-34.06-3.66-21.4,5.63-40.86,20.78-43.45,15.14-2.59,30.39,12.66,34.05,34.06h.01Z"/>
                </g>
              </g>
            </g>
            <g>
              <path class="cls-23" d="M114.72,92.66c2.23,5.55,6.72,8.87,11.7,9.97h0s1.78,4.39-6.31,10.26c-8.1,5.86-16.23,3.81-21.08,3.94-4.85.15-16.49,5.58-28.21,1.82s-9.71-17.77-2.38-24.17c8.43,8.63,21.32,9.96,29.63,7.97,6.23-1.49,12.3-4.52,16.67-9.79h-.02Z"/>
              <g class="cls-27">
                <path class="cls-15" d="M96.3,120.89c-21.02,3.17-39.6-4.39-41.48-16.87-1.88-12.48,13.65-25.17,34.68-28.33,21.02-3.17,39.6,4.39,41.48,16.87s-13.65,25.17-34.67,28.33h-.01Z"/>
              </g>
            </g>
            <path class="cls-20" d="M129.79,103.06c.31,13.17-21.16,19.04-24.74,23.14-2.28,2.6-2.65,6.42-7.68,1.95-5.03-4.47-19.71-2.79-30.55-7.12-6.12-2.45-8.29-8.31-7.35-14.58.12-.85.31-1.71.56-2.57,1.13-4.02,3.47-8.01,6.79-11.22.52.63,1.05,1.26,1.62,1.83-7.33,6.4-9.33,20.41,2.38,24.17,11.73,3.77,23.36-1.68,28.21-1.82,4.85-.13,12.97,1.92,21.08-3.94,8.1-5.86,6.31-10.25,6.31-10.25h0c1.11.25,2.23.38,3.37.4h.01Z"/>
          </g>
          <g>
            <path class="cls-22" d="M79.96,56.59c-.56,0-1.05-.43-1.11-1-.87-8.22.76-13.33.82-13.54.09-.29.3-.53.57-.65.27-.13.58-.16.87-.05,4.38,1.56,7.47.52,8.59-1.2.77-1.18.53-2.64-.64-3.86-1.22-1.28-3.91-1.96-6.68-.81-2.12.88-7.03,4.11-6.71,14.95.02.61-.47,1.13-1.09,1.15-.63,0-1.13-.47-1.15-1.09-.34-12.22,5.54-16.02,8.09-17.08,3.33-1.39,7.1-.84,9.16,1.33,1.91,2,2.25,4.53.9,6.62-1.48,2.28-5.11,3.83-10.05,2.47-.4,1.85-1.05,5.95-.46,11.55.06.61-.38,1.16-1,1.22h-.12Z"/>
            <path class="cls-22" d="M95.89,73.71c-.38,0-.76-.2-.97-.56-1.48-2.55-3.48-5.03-5.7-7.41-.02,0-.05,0-.07-.01-.51-.09-.88-.53-.91-1.03-2.68-2.76-5.62-5.39-8.38-7.85-3.82-3.4-7.42-6.61-9.53-9.5-2.84-3.9-2.87-9.42-.07-13.43,2.66-3.79,7.23-5.25,12.33-3.97,3.66-3.17,9.26-3.38,13.27-.44,3.76,2.75,6.28,8.6,2.12,16.79-5.13,10.09-6.69,14.7-7.35,17.66,2.41,2.55,4.59,5.24,6.22,8.05.31.53.12,1.21-.4,1.53-.18.1-.37.16-.56.16h.01ZM79.05,31.74c-2.92,0-5.35,1.19-6.96,3.49-2.26,3.23-2.24,7.68.05,10.82,1.96,2.7,5.48,5.83,9.2,9.15,2.44,2.17,5.01,4.47,7.45,6.89.86-3.18,2.68-7.9,7.19-16.79,3-5.88,2.45-11.11-1.45-13.97-3.33-2.44-8-2.16-10.87.66-.29.28-.71.38-1.09.28-1.23-.35-2.42-.53-3.54-.53h.01Z"/>
            <path class="cls-22" d="M92.48,68.88h-.11c-.61-.06-1.06-.61-1-1.22.35-3.41,2.99-5.7,5.54-7.91,2.92-2.52,5.67-4.91,4.93-8.77-.7-3.68.02-6.51.65-8.99.81-3.19,1.45-5.7-1.04-9.31-1.71-2.48-4.27-4.09-7.2-4.53-2.83-.43-5.74.34-7.96,2.1-.49.38-1.18.3-1.57-.19-.38-.49-.3-1.18.19-1.57,2.71-2.14,6.24-3.07,9.68-2.55,3.55.53,6.65,2.48,8.72,5.48,3.06,4.45,2.2,7.85,1.36,11.13-.6,2.37-1.22,4.82-.62,8.02.98,5.13-2.55,8.19-5.67,10.88-2.32,2.01-4.52,3.92-4.78,6.44-.06.57-.54,1.01-1.11,1.01v-.02Z"/>
            <path class="cls-22" d="M94.28,71.22c-.29,0-.59-.11-.81-.34-3.38-3.54-7.35-4.24-11.18-4.93-4.57-.82-8.87-1.59-10.32-7.36-.85-3.38-2.29-5.1-3.83-6.9-1.47-1.73-2.99-3.54-3.98-6.75-1.04-3.33-.04-7.31,2.58-10.38,3.37-3.94,8.72-5.71,14.65-4.84.61.09,1.04.65.94,1.27s-.66,1.04-1.27.94c-5.16-.76-9.75.73-12.63,4.08-2.14,2.49-2.96,5.66-2.15,8.26.86,2.77,2.17,4.32,3.56,5.96,1.63,1.93,3.31,3.91,4.29,7.8,1.09,4.37,4.22,4.93,8.54,5.71,3.98.72,8.5,1.53,12.39,5.58.43.45.42,1.15-.03,1.58-.22.21-.5.31-.77.31Z"/>
            <path class="cls-22" d="M118.6,95.61c-.38,0-.76-.2-.97-.55-2.52-4.25-5.81-4.99-8.99-5.71-2.59-.58-5.27-1.18-7.15-3.69-2.75-3.66-5.05-3.94-9.65-4.5-1.13-.13-2.37-.29-3.75-.51-3.27-.52-5.22-2.12-6.8-3.4-1.34-1.09-2.29-1.88-3.67-1.88-.76,0-1.62.24-2.64.72-4.94,2.33-9.89,2.66-15.13,2.99-1.89.12-3.83.25-5.83.47-.5.05-.98-.23-1.16-.71-.19-.47-.03-1.01.37-1.31,7.85-5.84,17.2-8.93,27.02-8.93,17.58,0,32.66,9.75,39.35,25.46.23.54,0,1.17-.52,1.43-.17.08-.33.12-.51.12h.01ZM77.64,73.13c2.17,0,3.65,1.21,5.08,2.38,1.5,1.23,3.06,2.5,5.74,2.93,1.35.22,2.55.36,3.65.5,4.72.57,7.85.95,11.17,5.39,1.39,1.85,3.46,2.31,5.86,2.85,1.62.36,3.42.77,5.21,1.69-7.28-11.27-19.81-18.03-34.08-18.03-7.91,0-15.48,2.1-22.15,6.11.54-.04,1.07-.07,1.6-.1,5.02-.32,9.75-.62,14.32-2.78,1.33-.62,2.5-.93,3.59-.93Z"/>
            <path class="cls-22" d="M116.49,91.37c-.21,0-.42-.06-.61-.18-.52-.33-.66-1.03-.32-1.55,2.46-3.78,3.95-8.34,4.43-13.57,1.27-13.86-6.35-20.95-11.91-26.13-2.91-2.71-5.2-4.85-5.65-7.32-.11-.61.29-1.19.9-1.3.6-.1,1.18.3,1.3.9.31,1.73,2.47,3.75,4.96,6.07,5.57,5.19,13.98,13.01,12.61,27.97-.51,5.59-2.12,10.5-4.78,14.59-.22.33-.57.51-.93.51h.01Z"/>
            <path class="cls-22" d="M90.8,104.39c-11.04,0-24.92-5.01-29.98-20.58-.63-1.93-1.09-3.86-1.37-5.73-.09-.61.33-1.18.93-1.28.6-.08,1.18.33,1.28.94.26,1.74.7,3.55,1.29,5.37,5.86,17.99,24.5,20.75,34.86,18.25,5.18-1.25,12.37-4.14,17.15-10.82.36-.5,1.06-.61,1.56-.26.5.36.62,1.06.26,1.56-4.1,5.74-10.48,9.78-18.44,11.7-2.22.53-4.78.84-7.52.84h-.01Z"/>
            <path class="cls-22" d="M60.24,75.62c-.6,0-1.1-.48-1.12-1.08-.26-7.72,2.54-13.42,4.79-17.98,1.48-3.02,2.66-5.41,2.46-7.37-.06-.61.38-1.16,1-1.22.62-.05,1.16.38,1.22,1,.26,2.6-1.1,5.38-2.68,8.58-2.14,4.35-4.8,9.77-4.57,16.93.02.61-.47,1.13-1.08,1.15h-.04.01Z"/>
            <path class="cls-22" d="M96.56,47.78c-.32,0-.64-.13-.86-.4-.18-.21-4.37-5.27-5.75-9.72-.19-.59.15-1.21.74-1.4s1.21.15,1.4.74c1.25,4.03,5.28,8.9,5.32,8.96.39.48.33,1.18-.15,1.58-.21.18-.47.26-.72.26h.01Z"/>
            <path class="cls-22" d="M114.99,56.59c-.46,0-.88-.28-1.05-.74-.22-.58.08-1.22.66-1.43,11.31-4.15,15.52-9.24,14.09-17.01-1.18-6.39-5.55-8.01-9.79-9.59-1.29-.48-2.5-.93-3.58-1.5-2.31-1.25-3.4-3.29-4.47-5.26-1.21-2.25-2.36-4.39-5.27-5.75-2.16-1.01-4.68-.8-6.91.57-3.32,2.04-5.39,6.18-5.52,11.07-.02.61-.54,1.08-1.15,1.09-.61-.02-1.1-.53-1.08-1.15.16-5.65,2.62-10.47,6.58-12.91,2.88-1.77,6.17-2.03,9.03-.7,3.58,1.68,5.02,4.35,6.29,6.71.99,1.84,1.84,3.42,3.56,4.35.93.51,2.09.93,3.3,1.38,4.37,1.62,9.8,3.64,11.21,11.27,2.12,11.47-7.18,16.45-15.52,19.51-.12.05-.26.07-.38.07h.01Z"/>
            <path class="cls-22" d="M65.68,56.59c-.23,0-.46-.07-.65-.22-12.83-9.35-14.85-16.76-14.29-21.32.58-4.79,4.19-7.89,7.37-9.18,1.44-.59,2.84-1,4.19-1.39,4.03-1.17,7.49-2.19,11.32-7.48,2.84-3.94,7.3-5.83,11.61-4.93,4.37.91,7.65,4.5,8.76,9.6.13.6-.25,1.19-.85,1.33-.6.13-1.2-.25-1.33-.85-.91-4.21-3.55-7.16-7.03-7.89-3.43-.72-7.02.83-9.34,4.06-4.28,5.9-8.46,7.13-12.5,8.31-1.3.38-2.64.77-3.97,1.32-3.35,1.37-5.59,4.13-6,7.38-.49,3.96,1.44,10.52,13.39,19.24.5.36.61,1.06.25,1.56-.22.3-.56.46-.9.46h-.02Z"/>
            <path class="cls-22" d="M55.77,108.04c-2.88,0-5.71-.8-8.31-2.37-5.12-3.08-9.48-9.34-11.1-15.95-1.63-6.62-4.16-11.4-5.83-14.58-.76-1.43-1.36-2.56-1.68-3.49-.79-2.26.36-3.89,2.11-6.35,1.06-1.48,2.37-3.33,3.84-6.01.75-1.37,1.43-2.96,2.16-4.64,2.94-6.82,6.6-15.32,17.29-12.23.59.17.93.79.77,1.38-.17.59-.79.93-1.38.77-8.8-2.53-11.62,4.04-14.61,10.98-.75,1.73-1.45,3.37-2.25,4.84-1.54,2.79-2.95,4.77-3.97,6.23-1.69,2.39-2.21,3.2-1.82,4.32.27.76.83,1.83,1.55,3.18,1.72,3.27,4.34,8.21,6.03,15.09,1.49,6.06,5.45,11.78,10.09,14.57,3.32,2,6.88,2.54,10.6,1.61.6-.16,1.2.22,1.36.81.15.6-.22,1.2-.81,1.36-1.33.33-2.66.5-3.97.5h-.03Z"/>
            <path class="cls-22" d="M101.07,131.34c-1.26,0-2.66-.74-4.45-2.35-2.41-2.14-7.8-2.78-13.52-3.47-5.38-.64-11.47-1.37-16.71-3.46-4.24-1.69-7.07-5.12-7.96-9.63-1.31-6.65,1.74-14.92,7.6-20.58.45-.43,1.15-.42,1.58.03s.42,1.15-.02,1.58c-5.32,5.15-8.13,12.6-6.95,18.54.52,2.66,2.09,6.2,6.59,7.99,4.96,1.98,10.9,2.69,16.14,3.31,6.34.76,11.81,1.41,14.74,4.02,1.86,1.65,2.74,1.82,3.08,1.76.55-.07,1.07-.86,1.67-1.77.38-.58.81-1.23,1.35-1.85,1.17-1.35,3.74-2.69,6.97-4.4,7.47-3.93,17.7-9.33,17.49-17.98-.01-.61.48-1.13,1.09-1.14.63.03,1.13.48,1.14,1.09.25,10.05-11.15,16.05-18.69,20.02-2.92,1.54-5.43,2.86-6.33,3.89-.43.49-.8,1.06-1.15,1.6-.83,1.26-1.68,2.56-3.25,2.77-.13.02-.27.03-.42.03h.02Z"/>
            <path class="cls-22" d="M130.18,104.18c-1.1,0-2.21-.09-3.31-.3-6.06-1.1-10.88-5.03-13.2-10.79-.23-.57.04-1.22.62-1.45.57-.23,1.22.04,1.45.62,2.03,5.03,6.24,8.47,11.52,9.43,5.47.99,11.12-.87,14.8-4.87,4.87-5.29,4.93-12.27,4.97-17.87.03-3.3.05-6.14.99-8.23.31-.68.6-1.32.88-1.91,1.85-3.93,2.28-4.87-.49-6.78-2.99-2.05-4.82-6.17-6.59-10.17-2.73-6.15-5.31-11.97-11.58-10.94-.61.1-1.18-.31-1.29-.92-.09-.61.31-1.18.92-1.29,7.99-1.3,11.18,5.89,13.99,12.23,1.72,3.88,3.34,7.53,5.81,9.24,4.34,2.98,3.11,5.6,1.26,9.57-.27.58-.56,1.19-.86,1.87-.75,1.66-.76,4.29-.79,7.34-.05,5.99-.1,13.44-5.56,19.36-3.45,3.75-8.43,5.85-13.54,5.85h0Z"/>
          </g>
        </g>
        <g>
          <path class="cls-22" d="M57.63,123.2c1.62.01,2.93,1.34,2.91,2.96,0,1.62-1.34,2.92-2.97,2.91-1.62-.02-2.92-1.34-2.91-2.96.02-1.62,1.35-2.93,2.97-2.91Z"/>
          <path class="cls-22" d="M128.62,120.07c.54,1.13.06,2.47-1.06,3.01-1.12.54-2.47.06-3.01-1.06-.54-1.12-.06-2.47,1.06-3,1.12-.54,2.47-.06,3,1.06h.01Z"/>
          <path class="cls-22" d="M53.29,113.48c.77.84.71,2.15-.13,2.92s-2.15.71-2.91-.13c-.77-.84-.71-2.14.13-2.91.84-.77,2.14-.71,2.91.13h0Z"/>
          <path class="cls-22" d="M40.42,126.14c0,.75-.61,1.36-1.36,1.36s-1.36-.61-1.36-1.36.61-1.36,1.36-1.36,1.36.61,1.36,1.36Z"/>
          <path class="cls-22" d="M29.72,49.28c1.13.01,2.04.94,2.03,2.09-.01,1.13-.94,2.04-2.08,2.03-1.14-.01-2.05-.94-2.04-2.08,0-1.14.94-2.05,2.09-2.04Z"/>
          <path class="cls-22" d="M136.71,111.44c0,.75-.61,1.36-1.35,1.36s-1.37-.61-1.37-1.36.61-1.36,1.37-1.36,1.35.61,1.35,1.36Z"/>
          <path class="cls-22" d="M49.75,26.04c0,.76-.61,1.36-1.36,1.36s-1.36-.61-1.36-1.36.61-1.36,1.36-1.36,1.36.61,1.36,1.36Z"/>
          <path class="cls-22" d="M141.48,30.08c0,1.62-1.31,2.94-2.94,2.94s-2.94-1.32-2.94-2.94,1.32-2.94,2.94-2.94,2.94,1.32,2.94,2.94Z"/>
          <path class="cls-22" d="M43.28,110.08c0,1.62-1.32,2.94-2.94,2.94s-2.94-1.31-2.94-2.94,1.31-2.93,2.94-2.93,2.94,1.31,2.94,2.93Z"/>
          <path class="cls-22" d="M44.92,32.84c1.23.01,2.24,1.04,2.23,2.27,0,1.25-1.03,2.24-2.27,2.23-1.25-.01-2.25-1.03-2.23-2.27,0-1.25,1.03-2.24,2.27-2.23Z"/>
          <path class="cls-22" d="M94.45,8.88c0,.75-.61,1.36-1.37,1.36s-1.36-.61-1.36-1.36.61-1.36,1.36-1.36,1.37.61,1.37,1.36Z"/>
          <g>
            <path class="cls-22" d="M135.35,12.06c-1.58,2.46-5.19,3.78-7.97,2.87,1.57-2.47,7.12-3.15,7.97-2.87Z"/>
            <path class="cls-22" d="M127.32,14.95s.04-.01.05-.02v.04c2.8.78,5.14,5.79,5.14,6.67-2.64-.68-4.87-3.36-5.17-6.09-.34,2.81-3.94,6.13-4.73,6.39-.18-2.9,1.95-6.06,4.7-6.99h.01Z"/>
            <path class="cls-22" d="M127.04,6.48c.56.68,1.96,6.02.3,8.42,0,0,.02.02.02.03-.02,0-.03.01-.05.02h0c-2.73,1.02-7.55-1.66-8.08-2.38,2.49-.98,5.8-.17,7.67,1.8-1.45-2.29-1.42-5.71.15-7.89Z"/>
          </g>
        </g>
      </g>
    </g>
  </g>
  <text class="cls-24" transform="translate(177.21 100.78)"><tspan x="0" y="0">InkedIn</tspan></text>
</svg>